<svg xmlns="http://www.w3.org/2000/svg" viewBox="0 0 1065 200.25">
  <defs>
    <clipPath id="A">
      <path d="M1.988 2.516h170.789v196.891H1.988zm0 0" clip-rule="nonzero" />
    </clipPath>
    <clipPath id="B">
      <path d="M131 139h39v24h-39zm0 0" clip-rule="nonzero" />
    </clipPath>
    <clipPath id="C">
      <path d="M139.203 169.434l-7.512-13.109 30.191-17.301 7.512 13.113zm0 0" clip-rule="nonzero" />
    </clipPath>
    <clipPath id="D">
      <path d="M108.996 186.742L24.09 38.551l170.84-97.883 84.902 148.191zm0 0" clip-rule="nonzero" />
    </clipPath>
    <path id="E"
      d="M353.949 60.094c5.75-2.875 17.25-4.312 34.5-4.312 23 0 34.5 12.945 34.5 38.828v17.25c0 25.875-11.5 38.813-34.5 38.813-5.75 0-11.5-.863-17.25-2.594v37.094l-17.25 4.313zm51.75 34.516c0-14.375-5.75-21.562-17.25-21.562-2.93 0-5.805.148-8.625.438-2.812.281-5.687.711-8.625 1.281v56.922c2.938.586 5.813 1.023 8.625 1.313a86.88 86.88 0 0 0 8.625.422c11.5 0 17.25-7.187 17.25-21.562zm0 0" />
    <path id="F" d="M440.209 29.906l17.25-4.312v125.078h-17.25zm0 0" />
    <path id="G"
      d="M474.714 98.922c0-28.758 12.363-43.141 37.094-43.141 23.57 0 35.359 14.383 35.359 43.141 0 8.625-1.437 12.938-4.312 12.938h-50.891c0 14.375 5.75 21.563 17.25 21.563 11.332 0 20.391-1.266 27.172-3.797l3.281 15.953c-5.98 3.398-16.133 5.094-30.453 5.094-23 0-34.5-14.375-34.5-43.125zm55.203-3.453c0-14.945-6.039-22.422-18.109-22.422-13.23 0-19.844 7.477-19.844 22.422zm0 0" />
    <path id="H"
      d="M871.513 60.094c5.926-2.875 17.426-4.312 34.5-4.312 3.969 0 7.594.352 10.875 1.047l-3.891 17.078c-1.898-.57-4.227-.859-6.984-.859-2.93 0-5.805.148-8.625.438-2.812.281-5.687.711-8.625 1.281v75.906h-17.25zm0 0" />
  </defs>
  <path
    d="M202.13 55.781h19.844l18.969 36.234 18.984-36.234h19.844l-25.891 47.453 25.891 47.438h-19.844l-18.984-36.234-18.969 36.234H202.13l25.875-47.437zm94.886 4.313c5.926-2.875 17.426-4.312 34.5-4.312 3.969 0 7.594.352 10.875 1.047L338.5 73.906c-1.898-.57-4.227-.859-6.984-.859-2.93 0-5.805.148-8.625.438-2.812.281-5.687.711-8.625 1.281v75.906h-17.25zm0 0" />
  <use href="#E" />
  <use href="#F" />
  <use href="#G" />
  <path
    d="M560.974 55.781h19.844l18.969 36.234 18.984-36.234h19.844l-25.891 47.453 25.891 47.438h-19.844l-18.984-36.234-18.969 36.234h-19.844l25.875-47.437zm0 0" />
  <use href="#E" x="301.912" />
  <use href="#F" x="301.913" />
  <path
    d="M776.626 98.922c0-28.758 12.938-43.141 38.813-43.141 25.883 0 38.828 14.383 38.828 43.141v8.625c0 28.75-12.945 43.125-38.828 43.125-25.875 0-38.812-14.375-38.812-43.125zm17.25 8.625c0 17.25 7.188 25.875 21.563 25.875s21.563-8.625 21.563-25.875v-8.625c0-17.25-7.187-25.875-21.562-25.875s-21.562 8.625-21.562 25.875zm0 0" />
  <use href="#H" />
  <use href="#G" x="453.731" />
  <use href="#H" x="143.193" />
  <g clip-path="url(#A)">
    <path fill="#4ba8b6"
      d="M90.992 4.672l38.93 22.461h.039l4.609 2.68-14.75 8.508h-.039l-38.43 22.207v16.43l52.676-30.426 14.75-8.504 20.113 11.605 3.73 2.137v27.449l-14.836 8.547-52.211 30.172 14.246 8.215 41.695-24.098 11.105-6.41v54.602l-3.73 2.137-17.18 9.93v-.711l-8.215-4.734-5.949-3.437 20.238-11.691v-20.492l-23.215 13.41.086.043-14.836 8.508-14.793-8.551-14.203-8.211-7.418-4.277-7.375-4.23 81.754-47.227V60.277l-9.008-5.195-82.215 47.477V52.023l38.508-22.211-17.766-10.266L52.02 39.91h.043l-2.977 1.719v81.211l73.879 42.66 11.605 6.703-4.609 2.684h-.039l-38.93 22.461-3.687 2.137-3.687-2.137-77.941-44.965-3.687-2.137V51.77l3.688-2.137 11.102-6.41v98.516l70.527 40.73 17.723-10.266-67.633-39.055-3.098-1.801V33.125l10.348-5.992h.043l38.93-22.461 3.688-2.137zm0 0"
      fill-rule="evenodd" />
  </g>
  <g clip-path="url(#B)">
    <g clip-path="url(#C)">
      <g clip-path="url(#D)">
        <path fill="#4ba8b6"
          d="M66.621 108.441l.133-44.941-.02-.039.035-5.332 14.715 8.57.02.035 38.375 22.301 14.25-8.164-52.582-30.582-14.715-8.566.074-23.223v-4.301L90.723.555l14.789 8.621 52.137 30.305.043-16.445-41.633-24.199-11.086-6.445 47.379-27.145 3.707 2.172 17.156 9.969-.617.355-.023 9.48-.023 6.871-20.207-11.75-17.781 10.188 23.176 13.477-.004-.094 14.754 8.645-.062 17.082-.062 16.41-.023 8.559-.004 8.504-81.621-47.457-9.055 5.188-.027 10.398 82.066 47.734-43.848 25.125-38.418-22.375-.074 20.52 35.211 20.492-.02-.039 2.969 1.73 70.465-40.375.285-85.309.047-13.402 4.621 2.664.02.039 38.84 22.609 3.688 2.137-.02 4.262-.266 89.984-.02 4.262-85.445 48.953-3.687-2.137-11.082-6.449 85.477-48.973.281-81.441-17.719-10.277-.262 78.098-.023 3.586-85.227 48.832-10.344-6.004-.02-.035-38.844-22.609-3.687-2.141zm0 0"
          fill-rule="evenodd" />
      </g>
    </g>
  </g>
</svg>