<svg width="40" height="40" viewBox="0 0 40 40" fill="none" xmlns="http://www.w3.org/2000/svg">
<path d="M12.8735 15L4.1379 20L4.1379 10L12.8735 15Z" fill="#019CDE"/>
<path d="M4.13794 19.9999L12.8736 14.9999L12.8736 24.9999L4.13794 19.9999Z" fill="#4071B3"/>
<path d="M4.13794 9.99994L12.8736 4.99995L12.8736 14.9999L4.13794 9.99994Z" fill="#6BA8D7"/>
<path d="M12.8735 5.00001L21.6092 2.77581e-05L21.6092 10L12.8735 5.00001Z" fill="#6CA7D8"/>
<path d="M12.8735 35L21.6092 30L21.6092 40L12.8735 35Z" fill="#6BA8D7"/>
<path d="M12.8735 24.9998L4.1379 29.9998L4.1379 19.9998L12.8735 24.9998Z" fill="#006AA8"/>
<path d="M30.3447 24.9998L21.6091 29.9998L21.6091 19.9998L30.3447 24.9998Z" fill="#019CDE"/>
<path d="M21.6091 30L30.3448 25L30.3448 35L21.6091 30Z" fill="#4071B3"/>
<path d="M30.3447 35L21.6091 40L21.6091 30L30.3447 35Z" fill="#006AA8"/>
<path d="M30.3447 4.99999L21.6091 9.99997L21.6091 -3.61749e-07L30.3447 4.99999Z" fill="#019CDE"/>
<path d="M21.6091 10L30.3448 5.00003L30.3448 15L21.6091 10Z" fill="#4071B3"/>
<path d="M30.3447 15L21.6091 20L21.6091 10L30.3447 15Z" fill="#006AA8"/>
<path d="M4.13794 30L12.8736 25L12.8736 35L4.13794 30Z" fill="#019CDE"/>
</svg>
