<svg xmlns="http://www.w3.org/2000/svg" viewBox="5 3 142 38"><path d="M53.9 19.5c-.5-.7-1.2-1.2-2-1.5-.8-.4-1.7-.5-2.7-.5-.8 0-1.5.1-2.2.3l-1.2.5v-6.4L43 13.3v18.2h.1c.6.2 1.3.3 2.2.5s2 .2 3.1.2 2.1-.2 2.9-.5c.9-.3 1.6-.8 2.2-1.5.6-.6 1.1-1.4 1.4-2.3a10.07 10.07 0 0 0 .5-3.1c0-1.1-.1-2.1-.4-3-.2-.9-.6-1.7-1.1-2.3zm-1.2 5.3c0 1.6-.4 2.8-1.2 3.7s-1.8 1.3-3.1 1.3c-.7 0-1.2 0-1.7-.1-.4-.1-.7-.1-1-.2v-8.7c.3-.2.7-.5 1.2-.7.6-.2 1.2-.3 1.8-.3.7 0 1.3.1 1.8.4.5.2.9.6 1.2 1s.5 1 .7 1.6.3 1.3.3 2zm5.3-7.1h2.7v14.2H58zm1.3-5.8c-.5 0-.9.2-1.2.5s-.5.7-.5 1.3.2 1 .5 1.3.7.5 1.2.5.9-.2 1.2-.5.5-.7.5-1.3c0-.5-.2-1-.5-1.3s-.7-.5-1.2-.5zm11.8 17.3l-.9.4c-.4.2-1 .2-1.8.2-.4 0-.8-.1-1.1-.2s-.6-.3-.8-.5-.4-.6-.5-1a7.18 7.18 0 0 1-.2-1.7V20h5.3v-2.3h-5.3v-5.9l-2.7 1.5v13.1c0 .9.1 1.8.2 2.5.2.7.4 1.3.8 1.8s.9.9 1.5 1.1a7.46 7.46 0 0 0 2.4.4c.8 0 1.6-.1 2.2-.3.2-.1.3-.1.4-.1l.4-.2h.1v-2.5.1zm13-10c-.5-.6-1.1-1-1.8-1.4-.7-.3-1.7-.5-2.8-.5-.5 0-1.1.1-1.6.1-.5.1-.9.2-1.4.4v-6.1l-2.7 1.5v18.6h2.7V20.3c.1 0 .2-.1.4-.1.2-.1.4-.1.7-.1s.5-.1.8-.1c1-.1 1.8 0 2.4.2.4.2.8.4 1 .8.3.4.4.8.6 1.4.1.6.2 1.3.2 2.2V32h2.7v-8c0-1-.1-1.8-.3-2.6-.2-.9-.5-1.6-.9-2.2zm14.6.2c-.6-.7-1.3-1.2-2.1-1.5-.8-.4-1.7-.5-2.7-.5s-1.9.2-2.7.5c-.8.4-1.5.9-2.1 1.5-.6.7-1.1 1.4-1.4 2.4-.3.9-.5 1.9-.5 3s.2 2.1.5 3.1c.3.9.8 1.7 1.4 2.4s1.3 1.2 2.1 1.5c.8.4 1.7.5 2.7.5s1.9-.2 2.7-.5c.8-.4 1.5-.9 2.1-1.5.6-.7 1.1-1.4 1.4-2.4.3-.9.5-1.9.5-3.1 0-1.1-.2-2.1-.5-3s-.8-1.7-1.4-2.4zm-4.8 10.4c-1.2 0-2.1-.5-2.8-1.3-.7-.9-1-2.1-1-3.7 0-1.5.3-2.8 1-3.7s1.6-1.3 2.8-1.3 2.1.5 2.8 1.3c.7.9 1 2.1 1 3.7 0 1.5-.3 2.8-1 3.7s-1.6 1.3-2.8 1.3zm27-10.5a4.28 4.28 0 0 0-1.6-1.4c-.7-.3-1.6-.5-2.7-.5-.6 0-1.1.1-1.6.2s-.9.3-1.3.4c-.4.2-.7.3-1 .5-.2.1-.4.2-.5.3-.4-.4-.9-.8-1.5-1s-1.4-.4-2.3-.4c-1.2 0-2.3.1-3.3.2l-2.3.5h-.1v13.8h2.7V20.1c.1 0 .2 0 .3-.1.2 0 .5-.1.7-.1.3 0 .5 0 .8-.1h.8c.6 0 1 .1 1.4.3s.6.4.9.8c.2.4.4.9.5 1.4.1.6.1 1.3.1 2.1v7.4h2.7v-8c0-.6 0-1.2-.1-1.8l-.3-1.5c.2-.2.5-.3 1-.5s1.2-.3 2-.3c.6 0 1.1.1 1.4.3.4.2.6.4.9.8.2.4.4.9.4 1.4.1.6.1 1.3.1 2.1v7.4h2.7v-8c0-.9-.1-1.8-.2-2.6.1-.5-.2-1.2-.6-1.8zm15.7 2.5c-.3-.9-.8-1.7-1.4-2.3s-1.4-1.1-2.2-1.5c-.9-.3-1.9-.5-2.9-.5-1.2 0-2.2.1-3.1.3l-2.2.5h-.1v19.5l2.7-1.5v-4.8c.3.2.7.3 1.2.5.6.2 1.4.3 2.2.3 1 0 1.9-.2 2.7-.5.8-.4 1.5-.9 2-1.5.5-.7 1-1.4 1.2-2.4.3-.9.4-1.9.4-3 0-1.2-.2-2.2-.5-3.1zm-9.4-1.7c.2-.1.5-.1.9-.2s1-.1 1.7-.1c1.3 0 2.4.4 3.1 1.3.8.9 1.2 2.1 1.2 3.7 0 .7-.1 1.4-.2 2s-.4 1.1-.7 1.6c-.3.4-.7.8-1.2 1-.5.3-1.1.4-1.8.4s-1.3-.1-1.8-.3-.9-.4-1.2-.7v-8.7z" fill="#fff" /><path d="M4.7 13.4l11.4-6.6 11.5 6.6v3L16.1 9.8 4.7 16.4zm2.6 20.1L4.7 32V18.7l11.5-6.6 11.4 6.6v3l-11.5-6.6-8.8 5.2zm29.6-20.1v13.2l-11.5 6.6-2.5-1.4 11.4-6.7V11.9zM18.2 5.6l2.6-1.5 11.5 6.6V24l-11.5 6.6-2.6-1.5 11.5-6.6V12.2zm2.6 35.7L9.3 34.7V21.4l2.6-1.5v13.2l11.4 6.7zM36.9 29v3l-11.5 6.6-11.5-6.7V18.8l2.6-1.6v13.3l8.9 5.1z" fill="#4ba7b5" /></svg>