<svg xmlns="http://www.w3.org/2000/svg" viewBox="0 0 1074 822" fill="#3fa3b5" xmlns:v="https://vecta.io/nano"><path d="M0 102.1L129.7 29 261 102.9v32.6L130.5 61.6 0 135.4v-33.3zm29.4 223.2L0 308.6V160.9l131.3-73.1L261 161.6v32.6l-130.5-73.1-101.1 57.2v147zM367 102.1v146.1l-131.3 74.7-28.5-16.7 130.5-73.9V85.4l29.3 16.7zM154.1 15.5l29.4-16.7 131.3 73.9v147.7l-130.5 73.1-30.2-16.7 130.5-73.9.8-114.4-131.3-73zm29.4 396.3L53 338.8V191l29.4-16.7v146.9L212 395.1l-28.5 16.7zm182.7-136.6v33.4l-130.5 73.9-130.5-74.7V161.6l29.4-16.7v146.9L236.5 349l129.7-73.8zm340.8 37l129.7-73.1L968 313v32.6l-130.5-73.9L707 345.6v-33.4zm29.4 223.2L707 518.7V371l131.3-73L968 371.8v32.6l-130.5-73.1-101.1 57.2v146.9zM1074 312.2v146.1L942.7 533l-28.5-16.7 130.5-73.9V295.6l29.3 16.6zm-212.9-86.5l29.4-16.7 131.3 73.9v147.7l-130.5 73.1-30.2-16.7 130.5-73.9.8-114.4-131.3-73zM890.5 622L760 548.9V401.2l29.4-16.7v146.9L919 605.3 890.5 622zm182.7-136.6v33.4l-130.5 73.9L812.2 518V371.8l29.4-16.7V502l101.9 57.2 129.7-73.8z" fill-opacity=".07"/></svg>