<svg xmlns="http://www.w3.org/2000/svg" viewBox="0 0 1280 1000" fill="#3fa3b5"><path d="M103,202.7l129.7-73.1L364,203.5v32.6l-130.5-73.9L103,236V202.7zM132.4,425.9L103,409.2V261.5l131.3-73.1L364,262.2v32.6l-130.5-73.1l-101.1,57.2V425.9zM470,202.7v146.1l-131.3,74.7l-28.5-16.7l130.5-73.9V186L470,202.7zM257.1,116.1l29.4-16.7l131.3,73.9V321l-130.5,73.1l-30.2-16.7l130.5-73.9l0.8-114.4L257.1,116.1zM286.5,512.4l-130.5-73V291.6l29.4-16.7v146.9L315,495.7L286.5,512.4zM469.2,375.8v33.4l-130.5,73.9l-130.5-74.7V262.2l29.4-16.7v146.9l101.9,57.2L469.2,375.8zM810,412.8l129.7-73.1l131.3,73.9v32.6l-130.5-73.9L810,446.2V412.8zM839.4,636L810,619.3V471.6l131.3-73l129.7,73.8V505l-130.5-73.1l-101.1,57.2V636zM1177,412.8v146.1l-131.3,74.7l-28.5-16.7l130.5-73.9V396.2L1177,412.8zM964.1,326.3l29.4-16.7l131.3,73.9v147.7l-130.5,73.1l-30.2-16.7l130.5-73.9l0.8-114.4L964.1,326.3zM993.5,722.6L863,649.5V501.8l29.4-16.7V632l129.6,73.9L993.5,722.6zM1176.2,586v33.4l-130.5,73.9l-130.5-74.7V472.4l29.4-16.7v146.9l101.9,57.2L1176.2,586z" fill-opacity=".07"/></svg>