<?xml version="1.0" encoding="utf-8"?>
<!DOCTYPE svg PUBLIC "-//W3C//DTD SVG 1.1//EN" "http://www.w3.org/Graphics/SVG/1.1/DTD/svg11.dtd">
<svg version="1.1" id="Layer_1" xmlns="http://www.w3.org/2000/svg" xmlns:xlink="http://www.w3.org/1999/xlink" x="0px" y="0px"
	 viewBox="0 0 142 46" enable-background="new 0 0 142 46" xml:space="preserve">
<g>
	<g id="logo">
		<path fill="#162021" d="M54.2,19.5c-0.5-0.7-1.2-1.2-2-1.5c-0.8-0.4-1.7-0.5-2.7-0.5c-0.8,0-1.5,0.1-2.2,0.3
			c-0.5,0.2-0.9,0.4-1.2,0.5v-6.4l-2.7,1.5v18.2l0.1,0c0.6,0.2,1.3,0.3,2.2,0.5c0.9,0.2,2,0.2,3.1,0.2c1.1,0,2.1-0.2,2.9-0.5
			c0.9-0.3,1.6-0.8,2.2-1.5c0.6-0.6,1.1-1.4,1.4-2.3c0.3-0.9,0.5-2,0.5-3.1c0-1.1-0.1-2.1-0.4-3C55.2,20.9,54.8,20.1,54.2,19.5z
			 M53,24.8c0,1.6-0.4,2.8-1.2,3.7c-0.8,0.9-1.8,1.3-3.1,1.3c-0.7,0-1.2,0-1.7-0.1c-0.4-0.1-0.7-0.1-1-0.2v-8.7
			c0.3-0.2,0.7-0.5,1.2-0.7c0.6-0.2,1.2-0.3,1.8-0.3c0.7,0,1.3,0.1,1.8,0.4c0.5,0.2,0.9,0.6,1.2,1c0.3,0.4,0.5,1,0.7,1.6
			C53,23.4,53,24.1,53,24.8z"/>
		<rect x="58.3" y="17.7" fill="#162021" width="2.7" height="14.2"/>
		<path fill="#162021" d="M59.7,11.9c-0.5,0-0.9,0.2-1.2,0.5c-0.3,0.3-0.5,0.7-0.5,1.3s0.2,1,0.5,1.3c0.3,0.3,0.7,0.5,1.2,0.5
			c0.5,0,0.9-0.2,1.2-0.5c0.3-0.3,0.5-0.7,0.5-1.3c0-0.5-0.2-1-0.5-1.3C60.6,12.1,60.1,11.9,59.7,11.9z"/>
		<path fill="#162021" d="M71.4,29.2c-0.2,0.1-0.5,0.2-0.9,0.4c-0.4,0.2-1,0.2-1.8,0.2c-0.4,0-0.8-0.1-1.1-0.2
			c-0.3-0.1-0.6-0.3-0.8-0.5c-0.2-0.2-0.4-0.6-0.5-1c-0.1-0.4-0.2-1-0.2-1.7V20h5.3v-2.3h-5.3v-5.9l-2.7,1.5v13.1
			c0,0.9,0.1,1.8,0.2,2.5c0.2,0.7,0.4,1.3,0.8,1.8c0.4,0.5,0.9,0.9,1.5,1.1c0.6,0.2,1.4,0.4,2.4,0.4c0.8,0,1.6-0.1,2.2-0.3
			c0.2-0.1,0.3-0.1,0.4-0.1c0.2-0.1,0.2-0.1,0.4-0.2l0.1,0l0-2.5L71.4,29.2z"/>
		<path fill="#162021" d="M84.4,19.2c-0.5-0.6-1.1-1-1.8-1.4c-0.7-0.3-1.7-0.5-2.8-0.5c-0.5,0-1.1,0.1-1.6,0.1
			c-0.5,0.1-0.9,0.2-1.4,0.4v-6.1l-2.7,1.5v18.6h2.7V20.3c0.1,0,0.2-0.1,0.4-0.1c0.2-0.1,0.4-0.1,0.7-0.1c0.3,0,0.5-0.1,0.8-0.1
			c1-0.1,1.8,0,2.4,0.2c0.4,0.2,0.8,0.4,1,0.8c0.3,0.4,0.4,0.8,0.6,1.4c0.1,0.6,0.2,1.3,0.2,2.2v7.4h2.7v-8c0-1-0.1-1.8-0.3-2.6
			C85.2,20.5,84.8,19.8,84.4,19.2z"/>
		<path fill="#162021" d="M99.1,19.4c-0.6-0.7-1.3-1.2-2.1-1.5c-0.8-0.4-1.7-0.5-2.7-0.5c-1,0-1.9,0.2-2.7,0.5
			c-0.8,0.4-1.5,0.9-2.1,1.5c-0.6,0.7-1.1,1.4-1.4,2.4c-0.3,0.9-0.5,1.9-0.5,3c0,1.1,0.2,2.1,0.5,3.1c0.3,0.9,0.8,1.7,1.4,2.4
			c0.6,0.7,1.3,1.2,2.1,1.5c0.8,0.4,1.7,0.5,2.7,0.5c1,0,1.9-0.2,2.7-0.5c0.8-0.4,1.5-0.9,2.1-1.5c0.6-0.7,1.1-1.4,1.4-2.4
			c0.3-0.9,0.5-1.9,0.5-3.1c0-1.1-0.2-2.1-0.5-3C100.1,20.9,99.6,20.1,99.1,19.4z M94.2,29.8c-1.2,0-2.1-0.5-2.8-1.3
			c-0.7-0.9-1-2.1-1-3.7c0-1.5,0.3-2.8,1-3.7c0.7-0.9,1.6-1.3,2.8-1.3c1.2,0,2.1,0.5,2.8,1.3c0.7,0.9,1,2.1,1,3.7
			c0,1.5-0.3,2.8-1,3.7C96.4,29.4,95.4,29.8,94.2,29.8z"/>
		<path fill="#162021" d="M121.3,19.3c-0.4-0.6-1-1.1-1.6-1.4c-0.7-0.3-1.6-0.5-2.7-0.5c-0.6,0-1.1,0.1-1.6,0.2
			c-0.5,0.1-0.9,0.3-1.3,0.4c-0.4,0.2-0.7,0.3-1,0.5c-0.2,0.1-0.4,0.2-0.5,0.3c-0.4-0.4-0.9-0.8-1.5-1c-0.6-0.2-1.4-0.4-2.3-0.4
			c-1.2,0-2.3,0.1-3.3,0.2c-1,0.2-1.7,0.3-2.3,0.5l-0.1,0v13.8h2.7V20.1c0.1,0,0.2,0,0.3-0.1c0.2,0,0.5-0.1,0.7-0.1
			c0.3,0,0.5,0,0.8-0.1c0.3,0,0.6,0,0.8,0c0.6,0,1,0.1,1.4,0.3c0.4,0.2,0.6,0.4,0.9,0.8c0.2,0.4,0.4,0.9,0.5,1.4
			c0.1,0.6,0.1,1.3,0.1,2.1v7.4h2.7v-8c0-0.6,0-1.2-0.1-1.8c-0.1-0.5-0.2-1-0.3-1.5c0.2-0.2,0.5-0.3,1-0.5c0.5-0.2,1.2-0.3,2-0.3
			c0.6,0,1.1,0.1,1.4,0.3c0.4,0.2,0.6,0.4,0.9,0.8c0.2,0.4,0.4,0.9,0.4,1.4c0.1,0.6,0.1,1.3,0.1,2.1v7.4h2.7v-8
			c0-0.9-0.1-1.8-0.2-2.6C121.9,20.6,121.7,19.9,121.3,19.3z"/>
		<path fill="#162021" d="M136.9,21.8c-0.3-0.9-0.8-1.7-1.4-2.3c-0.6-0.6-1.4-1.1-2.2-1.5c-0.9-0.3-1.9-0.5-2.9-0.5
			c-1.2,0-2.2,0.1-3.1,0.3c-0.9,0.2-1.6,0.3-2.2,0.5l-0.1,0v19.5l2.7-1.5v-4.8c0.3,0.2,0.7,0.3,1.2,0.5c0.6,0.2,1.4,0.3,2.2,0.3
			c1,0,1.9-0.2,2.7-0.5c0.8-0.4,1.5-0.9,2-1.5c0.5-0.7,1-1.4,1.2-2.4c0.3-0.9,0.4-1.9,0.4-3C137.4,23.7,137.2,22.7,136.9,21.8z
			 M127.6,20.1c0.2-0.1,0.5-0.1,0.9-0.2c0.4-0.1,1-0.1,1.7-0.1c1.3,0,2.4,0.4,3.1,1.3c0.8,0.9,1.2,2.1,1.2,3.7c0,0.7-0.1,1.4-0.2,2
			c-0.1,0.6-0.4,1.1-0.7,1.6c-0.3,0.4-0.7,0.8-1.2,1c-0.5,0.3-1.1,0.4-1.8,0.4c-0.7,0-1.3-0.1-1.8-0.3c-0.5-0.2-0.9-0.4-1.2-0.7
			V20.1z"/>
	</g>
	<g>
		<polygon fill="#6CADBD" points="5,13.4 16.4,6.8 28,13.4 28,16.4 16.5,9.8 5,16.4 		"/>
		<polygon fill="#6CADBD" points="7.6,33.5 5,32 5,18.7 16.6,12.1 28,18.7 28,21.7 16.5,15.1 7.6,20.3 		"/>
		<polygon fill="#6CADBD" points="37.3,13.4 37.3,26.6 25.8,33.2 23.2,31.8 34.7,25.1 34.7,11.9 		"/>
		<polygon fill="#6CADBD" points="18.6,5.6 21.1,4.1 32.6,10.7 32.6,24 21.2,30.6 18.6,29.1 30,22.5 30.1,12.2 		"/>
		<polygon fill="#6CADBD" points="21.1,41.3 9.7,34.7 9.7,21.4 12.3,19.9 12.2,33.1 23.7,39.8 		"/>
		<polygon fill="#6CADBD" points="37.2,29 37.2,32 25.7,38.6 14.2,31.9 14.2,18.8 16.8,17.2 16.8,30.5 25.8,35.6 		"/>
	</g>
</g>
</svg>
