<svg xmlns="http://www.w3.org/2000/svg" viewBox="0 0 20 20"><path d="M15 8.8c-1 0-1.3 1-1.5 1.3-.1.3-.6.8-1.1 1.3V3.6v-.4a1.54 1.54 0 0 0-1.5-1.5c-.2 0-.4 0-.6.1 0-.5-.6-1-1.3-1s-1.3.5-1.4 1.1c-.2 0-.4-.1-.6-.1a1.54 1.54 0 0 0-1.5 1.5v2c-.2-.1-.3-.1-.5-.1a1.54 1.54 0 0 0-1.5 1.5v8.2c0 2.4 1.9 4.3 4.3 4.3h2.7c2.7 0 5.5-6.9 6-8.3l.1-.5c-.1-.9-.8-1.6-1.6-1.6zm.5 1.8c-1.2 3.2-3.5 7.6-5 7.6H7.8a3.33 3.33 0 0 1-3.3-3.3V6.7a.47.47 0 0 1 .5-.5.47.47 0 0 1 .5.5v.1 3.9a.47.47 0 0 0 .5.5.47.47 0 0 0 .5-.5v-4-3-.4a.47.47 0 0 1 .5-.5.47.47 0 0 1 .5.5v6.4a.47.47 0 0 0 .5.5.47.47 0 0 0 .5-.5v-7-.4a.47.47 0 0 1 .5-.5.47.47 0 0 1 .5.5v7.4a.47.47 0 0 0 .5.5.47.47 0 0 0 .5-.5V3.5v-.1a.47.47 0 0 1 .5-.5.47.47 0 0 1 .5.5v9.4.1.1s0 .1.1.1v.1l.1.1h.1.2.1s.1 0 .1-.1h.1c.3-.3 1.8-1.8 2.1-2.6.2-.6.4-.7.5-.7a.47.47 0 0 1 .5.5l.1.2z" fill="#005460"/></svg>