<svg xmlns="http://www.w3.org/2000/svg" viewBox="0 0 60 60"><g fill="#f0c419"><path d="M30 0a1 1 0 0 0-1 1v6a1 1 0 1 0 2 0V1a1 1 0 0 0-1-1zm0 52a1 1 0 0 0-1 1v6a1 1 0 1 0 2 0v-6a1 1 0 0 0-1-1zm29-23h-6a1 1 0 1 0 0 2h6a1 1 0 1 0 0-2zM8 30a1 1 0 0 0-1-1H1a1 1 0 1 0 0 2h6a1 1 0 0 0 1-1zm38.264-15.264c.256 0 .512-.098.707-.293l5.736-5.736a1 1 0 0 0-1.414-1.414l-5.736 5.736a1 1 0 0 0 0 1.414c.195.196.451.293.707.293zM13.029 45.557l-5.736 5.736a1 1 0 0 0 0 1.414c.195.195.451.293.707.293s.512-.098.707-.293l5.736-5.736a1 1 0 0 0-1.414-1.414z"/><path d="M46.971 45.557a1 1 0 0 0-1.414 1.414l5.736 5.736c.195.195.451.293.707.293s.512-.098.707-.293a1 1 0 0 0 0-1.414l-5.736-5.736zM8.707 7.293a1 1 0 0 0-1.414 1.414l5.736 5.736c.195.195.451.293.707.293s.512-.098.707-.293a1 1 0 0 0 0-1.414L8.707 7.293zm41.544 14.111a1 1 0 0 0 .921.61c.13 0 .263-.026.39-.08l2.762-1.172a1 1 0 1 0-.781-1.841l-2.762 1.172a1 1 0 0 0-.53 1.311zM9.749 38.596a1 1 0 0 0-1.311-.53l-2.762 1.172a1 1 0 0 0 .391 1.921c.13 0 .263-.026.39-.08l2.762-1.172a1 1 0 0 0 .53-1.311zm44.732.217L51.7 37.688a1 1 0 1 0-.749 1.855l2.782 1.124a1.01 1.01 0 0 0 .374.073 1 1 0 0 0 .374-1.927zM5.519 21.188L8.3 22.312a1.01 1.01 0 0 0 .374.073 1 1 0 0 0 .375-1.928l-2.782-1.124a1 1 0 1 0-.748 1.855zm34.388 29.593a1 1 0 1 0-1.841.781l1.172 2.762a1 1 0 0 0 .921.61c.13 0 .263-.026.39-.08a1 1 0 0 0 .53-1.311l-1.172-2.762zM21.014 9.829c.13 0 .263-.026.39-.08a1 1 0 0 0 .53-1.311l-1.172-2.762a1 1 0 1 0-1.841.781l1.172 2.762a1 1 0 0 0 .921.61zm.745 40.569a1 1 0 0 0-1.302.553l-1.124 2.782a1 1 0 0 0 .553 1.302 1.01 1.01 0 0 0 .374.073 1 1 0 0 0 .928-.626l1.124-2.782a1 1 0 0 0-.553-1.302zM38.615 9.675a1 1 0 0 0 .928-.626l1.124-2.782a1 1 0 1 0-1.855-.749L37.688 8.3a1 1 0 0 0 .553 1.302 1.01 1.01 0 0 0 .374.073z"/><circle cx="30" cy="30" r="20"/></g><circle cx="30" cy="30" r="15" fill="#ede21b"/></svg>