<svg width="150" height="24" viewBox="0 0 150 24" fill="none" xmlns="http://www.w3.org/2000/svg">
<path d="M35.6339 22.3917C32.8504 22.3917 29.3779 21.6063 27.5315 19.5118C25.7126 17.3897 24.8031 14.813 24.8031 11.7815V4.54722C24.8031 3.88581 24.8169 3.40352 24.8445 3.10037C24.8996 2.79722 25.0236 2.43896 25.2165 2.02557C25.6024 1.28148 26.6772 0.909431 28.4409 0.909431C30.3701 0.909431 31.5 1.43305 31.8307 2.4803C31.9961 2.92124 32.0787 3.624 32.0787 4.58856V11.8228C32.0787 12.9527 32.3957 13.8346 33.0295 14.4685C33.6909 15.1023 34.559 15.4193 35.6339 15.4193C36.7362 15.4193 37.6181 15.0886 38.2795 14.4271C38.9685 13.7657 39.313 12.8976 39.313 11.8228V4.50589C39.313 3.87203 39.3268 3.40352 39.3543 3.10037C39.4094 2.76967 39.5472 2.39762 39.7677 1.98423C40.126 1.2677 41.187 0.909431 42.9508 0.909431C44.687 0.909431 45.748 1.28148 46.1338 2.02557C46.3268 2.43896 46.437 2.811 46.4646 3.14171C46.5197 3.44486 46.5472 3.91337 46.5472 4.54722V11.8228C46.5472 14.9852 45.5117 17.6171 43.617 19.5118C41.7224 21.4065 38.1765 22.3088 35.6339 22.3917Z" fill="black"/>
<path d="M16.122 11.8228L20.7106 16.4527C21.7027 17.4449 22.1988 18.2992 22.1988 19.0157C22.1988 19.7047 21.7027 20.5452 20.7106 21.5374C19.7185 22.5019 18.8779 22.9842 18.189 22.9842C17.5 22.9842 16.6594 22.4882 15.6673 21.496L11.1201 16.9075L6.53149 21.496C5.53937 22.4882 4.69882 22.9842 4.00984 22.9842C3.34842 22.9842 2.50787 22.5019 1.48819 21.5374C0.496063 20.5452 0 19.7047 0 19.0157C0 18.2992 0.496063 17.4449 1.48819 16.4527L6.07677 11.8228L1.48819 7.19289C0.496063 6.20076 0 5.36021 0 4.67124C0 3.9547 0.496063 3.10037 1.48819 2.10825C2.50787 1.11612 3.34842 0.620056 4.00984 0.620056C4.69882 0.620056 5.53937 1.11612 6.53149 2.10825L11.1201 6.73816L15.6673 2.10825C16.6594 1.11612 17.5 0.620056 18.189 0.620056C18.8779 0.620056 19.7185 1.11612 20.7106 2.10825C21.7027 3.10037 22.1988 3.9547 22.1988 4.67124C22.1988 5.36021 21.7027 6.20076 20.7106 7.19289L16.122 11.8228Z" fill="black"/>
<path d="M59.1418 0.861245C61.9115 0.861245 64.3642 1.69491 66.2107 3.78939C68.0296 5.91144 68.939 8.48821 68.939 11.5197L68.939 18.754C68.939 19.4154 68.9252 19.8977 68.8977 20.2008C68.8426 20.504 68.7186 20.8622 68.5256 21.2756C68.1398 22.0197 67.065 22.3917 65.3012 22.3917C63.3721 22.3917 62.2422 21.8681 61.9115 20.8209C61.7461 20.3799 61.6634 19.6772 61.6634 18.7126L61.6634 11.4784C61.6634 10.3484 61.3465 9.46655 60.7127 8.8327C60.0512 8.19884 59.252 8.2264 59.1418 8.2264C59.0316 8.2264 58.191 8.21262 57.5296 8.87404C56.8406 9.53545 56.4961 10.4036 56.4961 11.4784L56.4961 18.7953C56.4961 19.4291 56.4823 19.8977 56.4548 20.2008C56.3997 20.5315 56.2619 20.9036 56.0414 21.3169C55.6831 22.0335 54.6221 22.3917 52.8583 22.3917C51.1221 22.3917 50.0611 22.0197 49.6753 21.2756C49.4823 20.8622 49.3721 20.4902 49.3445 20.1595C49.2894 19.8563 49.2619 19.3878 49.2619 18.754L49.2619 11.4784C49.2619 8.31596 50.2974 5.68408 52.1921 3.78939C54.0867 1.89471 56.3721 0.861245 59.1418 0.861245Z" fill="black"/>
<path d="M71.5433 0.861261C74.313 0.861261 76.7657 1.69492 78.6122 3.78941C80.4311 5.91146 81.3405 8.48823 81.3405 11.5197L81.3405 18.754C81.3405 19.4154 81.3267 19.8977 81.2992 20.2008C81.2441 20.504 81.12 20.8622 80.9271 21.2756C80.5413 22.0197 79.4665 22.3918 77.7027 22.3918C75.7736 22.3918 74.6437 21.8681 74.313 20.8209C74.1476 20.38 74.0649 19.6772 74.0649 18.7126L74.0649 11.4784C74.0649 10.3485 73.748 9.46657 73.1141 8.83271C72.4527 8.19885 71.6535 8.22641 71.5433 8.22641C71.433 8.22641 70.5925 8.21263 69.9311 8.87405C69.2421 9.53547 68.8976 10.4036 68.8976 11.4784L68.8976 18.7953C68.8976 19.4292 68.8838 19.8977 68.8563 20.2008C68.8012 20.5315 68.6634 20.9036 68.4429 21.317C68.0846 22.0335 67.0236 22.3918 65.2598 22.3918C63.5236 22.3918 62.4626 22.0197 62.0767 21.2756C61.8838 20.8622 61.7736 20.4902 61.746 20.1595C61.6909 19.8563 61.6634 19.3878 61.6634 18.754L61.6634 11.4784C61.6634 8.31598 62.6989 5.68409 64.5936 3.78941C66.4882 1.89472 68.7736 0.86126 71.5433 0.861261Z" fill="black"/>
<path d="M93.5905 0.861245C96.3602 0.861245 98.8129 1.69491 100.659 3.78939C102.478 5.91144 103.388 8.48821 103.388 11.5197L103.388 18.754C103.388 19.4154 103.374 19.8977 103.346 20.2008C103.291 20.504 103.167 20.8622 102.974 21.2756C102.588 22.0197 101.514 22.3917 99.7499 22.3917C97.8208 22.3917 96.6909 21.8681 96.3602 20.8209C96.1948 20.3799 96.1121 19.6772 96.1121 18.7126L96.1121 11.4784C96.1121 10.3484 95.7952 9.46655 95.1613 8.8327C94.4999 8.19884 93.7007 8.2264 93.5905 8.2264C93.4802 8.2264 92.6397 8.21262 91.9783 8.87404C91.2893 9.53545 90.9448 10.4036 90.9448 11.4784L90.9448 18.7953C90.9448 19.4291 90.931 19.8977 90.9035 20.2008C90.8483 20.5315 90.7106 20.9036 90.4901 21.3169C90.1318 22.0335 89.0708 22.3917 87.307 22.3917C85.5708 22.3917 84.5098 22.0197 84.1239 21.2756C83.931 20.8622 83.8208 20.4902 83.7932 20.1595C83.7381 19.8563 83.7106 19.3878 83.7106 18.754L83.7106 11.4784C83.7106 8.31596 84.7461 5.68408 86.6407 3.78939C88.5354 1.89471 90.8208 0.861245 93.5905 0.861245Z" fill="black"/>
<path d="M105.992 0.861261C108.762 0.861261 111.214 1.69492 113.061 3.78941C114.88 5.91146 115.789 8.48823 115.789 11.5197L115.789 18.754C115.789 19.4154 115.775 19.8977 115.748 20.2008C115.693 20.504 115.569 20.8622 115.376 21.2756C114.99 22.0197 113.915 22.3918 112.151 22.3918C110.222 22.3918 109.092 21.8681 108.762 20.8209C108.596 20.38 108.514 19.6772 108.514 18.7126L108.514 11.4784C108.514 10.3485 108.197 9.46657 107.563 8.83271C106.901 8.19885 106.102 8.22641 105.992 8.22641C105.882 8.22641 105.041 8.21263 104.38 8.87405C103.691 9.53547 103.346 10.4036 103.346 11.4784L103.346 18.7953C103.346 19.4292 103.333 19.8977 103.305 20.2008C103.25 20.5315 103.112 20.9036 102.892 21.317C102.533 22.0335 101.472 22.3918 99.7086 22.3918C97.9724 22.3918 96.9113 22.0197 96.5255 21.2756C96.3326 20.8622 96.2224 20.4902 96.1948 20.1595C96.1397 19.8563 96.1121 19.3878 96.1121 18.754L96.1121 11.4784C96.1121 8.31598 97.1476 5.68409 99.0423 3.78941C100.937 1.89472 103.222 0.86126 105.992 0.861261Z" fill="black"/>
<path fill-rule="evenodd" clip-rule="evenodd" d="M147.29 1.31216C148.853 2.73204 148.969 5.15002 147.549 6.71286L134.602 20.9632C133.888 21.7492 132.879 22.2028 131.817 22.2153C130.755 22.2277 129.736 21.798 129.004 21.029L122.052 13.73C120.596 12.201 120.655 9.78096 122.184 8.32473C123.713 6.8685 126.133 6.92751 127.589 8.45653L131.706 12.7793L141.889 1.571C143.309 0.00815703 145.727 -0.107729 147.29 1.31216Z" fill="#3052FF"/>
</svg>
