<svg xmlns="http://www.w3.org/2000/svg" viewBox="0 0 20 20" fill="#005460"><path d="M17.9 17.1l-2.7-2.7a7.14 7.14 0 0 0 1.9-4.9C17 5.4 13.6 2 9.5 2S2 5.4 2 9.5 5.4 17 9.5 17a7.14 7.14 0 0 0 4.9-1.9l2.7 2.7c.1.1.2.1.4.1s.3 0 .4-.1.1-.5 0-.7zM3 9.5A6.49 6.49 0 0 1 9.5 3 6.49 6.49 0 0 1 16 9.5 6.49 6.49 0 0 1 9.5 16 6.49 6.49 0 0 1 3 9.5zm9.5-.5H10V6.5a.47.47 0 0 0-.5-.5.47.47 0 0 0-.5.5V9H6.5a.47.47 0 0 0-.5.5.47.47 0 0 0 .5.5H9v2.5a.47.47 0 0 0 .5.5.47.47 0 0 0 .5-.5V10h2.5a.47.47 0 0 0 .5-.5.47.47 0 0 0-.5-.5z"/></svg>