<?xml version="1.0" encoding="UTF-8"?>
<svg xmlns="http://www.w3.org/2000/svg" version="1.1" viewBox="0 0 80 80">
  <g>
    <g>
      <path class="cls-1" d="M2.7,31s0,0,0,.1l27.1.7c-.3-.5-.6-1-1-1.5l-26,.6h0Z"/>
      <path class="cls-1" d="M1.7,32.8h0c0,0,29,.8,29,.8-.2-.5-.5-1-.8-1.5,0,0-28.2.7-28.2.7Z"/>
      <path class="cls-1" d="M6.2,27.4c-.1.1-.3.2-.4.3l21,.5c-.5-.5-1-.9-1.6-1.3l-19,.5h0Z"/>
      <path class="cls-1" d="M19.9,24.5c-1.2-.3-2.5-.5-3.9-.5s-2.2.1-3.2.3l7.1.2h0Z"/>
      <path class="cls-1" d="M9.2,25.5c-.3.1-.6.3-.9.4l16.1.4c-.7-.4-1.5-.8-2.2-1.2,0,0-13,.3-13,.3Z"/>
      <path class="cls-1" d="M4,29.4l24.5.6c-.4-.5-.8-1-1.2-1.4l-23.1.6c0,0-.1.1-.2.2Z"/>
      <path class="cls-1" d="M.9,34.6s0,0,0,0l30.4.8c-.2-.5-.3-1-.5-1.5l-29.9.8h0Z"/>
      <path class="cls-1" d="M.4,36.4H.4s31.3.8,31.3.8c0-.5-.2-1.1-.4-1.6l-31,.8h0Z"/>
      <path class="cls-1" d="M32,39c0-.5,0-1.1-.2-1.6L.1,38.2H.1l31.9.8Z"/>
      <path class="cls-1" d="M1.7,47.1h0c0,0,28.2.8,28.2.8.3-.5.5-1,.8-1.5,0,0-29,.7-29,.7Z"/>
      <path class="cls-1" d="M32,40c0-.3,0-.5,0-.8l-32,.8,32,.8c0-.3,0-.5,0-.8Z"/>
      <path class="cls-1" d="M.9,45.3s0,0,0,0l29.9.8c.2-.5.4-1,.5-1.5l-30.4.8h0Z"/>
      <path class="cls-1" d="M.4,43.5H.4s31,.8,31,.8c.1-.5.3-1,.4-1.6l-31.3.8h0Z"/>
      <path class="cls-1" d="M12.8,55.7c1,.2,2.1.3,3.2.3s2.6-.2,3.9-.5l-7.1.2h0Z"/>
      <path class="cls-1" d="M.1,41.8H.1l31.7.8c0-.5.1-1,.2-1.6L.1,41.8Z"/>
      <path class="cls-1" d="M5.8,52.3c.1,0,.3.2.4.3l19,.5c.6-.4,1.1-.8,1.6-1.3l-21,.5h0Z"/>
      <path class="cls-1" d="M2.7,48.8s0,0,0,.1l26,.7c.4-.5.7-1,1-1.5l-27.1.7h0Z"/>
      <path class="cls-1" d="M4,50.6c0,0,.1.1.2.2l23.1.6c.4-.4.9-.9,1.2-1.4l-24.5.6h0Z"/>
      <path class="cls-1" d="M22.1,54.8c.8-.3,1.5-.7,2.2-1.2l-16.1.4c.3.2.6.3.9.4l13,.3Z"/>
      <path class="cls-1" d="M77.3,49s0,0,0-.1l-27.1-.7c.3.5.6,1,1,1.5l26-.7h0Z"/>
      <path class="cls-1" d="M78.3,47.2s0,0,0,0l-29-.7c.2.5.5,1,.8,1.5l28.2-.7Z"/>
      <path class="cls-1" d="M73.8,52.6c.1,0,.3-.2.4-.3l-21-.5c.5.5,1,.9,1.6,1.3l19-.5h0Z"/>
      <path class="cls-1" d="M60.1,55.5c1.2.3,2.5.5,3.9.5s2.2-.1,3.2-.3l-7.1-.2h0Z"/>
      <path class="cls-1" d="M70.8,54.5c.3-.1.6-.3.9-.4l-16.1-.4c.7.4,1.5.8,2.2,1.2l13-.3Z"/>
      <path class="cls-1" d="M76,50.6l-24.5-.6c.4.5.8,1,1.2,1.4l23.1-.6c0,0,.1-.1.2-.2Z"/>
      <path class="cls-1" d="M79.1,45.4s0,0,0,0l-30.4-.8c.2.5.3,1,.5,1.5l29.8-.8h0Z"/>
      <path class="cls-1" d="M79.6,43.6h0s-31.3-.8-31.3-.8c0,.5.2,1.1.4,1.6l31-.8h0Z"/>
      <path class="cls-1" d="M48,41c0,.5,0,1.1.2,1.6l31.7-.8h0s-31.8-.8-31.9-.8Z"/>
      <path class="cls-1" d="M78.3,32.9s0,0,0,0l-28.2-.7c-.3.5-.5,1-.8,1.5l29-.7Z"/>
      <path class="cls-1" d="M48,40c0,.3,0,.5,0,.8l32-.8-32-.8c0,.3,0,.5,0,.8Z"/>
      <path class="cls-1" d="M79.1,34.7s0,0,0,0l-29.8-.8c-.2.5-.4,1-.5,1.5l30.4-.8h0Z"/>
      <path class="cls-1" d="M79.6,36.5h0s-31-.8-31-.8c-.2.5-.3,1-.4,1.6l31.3-.8h0Z"/>
      <path class="cls-1" d="M67.2,24.3c-1-.2-2.1-.3-3.2-.3s-2.7.2-3.9.5l7.1-.2h0Z"/>
      <path class="cls-1" d="M79.9,38.2h0l-31.7-.8c0,.5-.1,1-.2,1.6l31.8-.8Z"/>
      <path class="cls-1" d="M74.2,27.7c-.1-.1-.3-.2-.4-.3l-19-.5c-.6.4-1.1.8-1.6,1.3l21-.5h0Z"/>
      <path class="cls-1" d="M77.3,31.2s0,0,0-.1l-26-.6c-.3.5-.7,1-1,1.5l27.1-.7h0Z"/>
      <path class="cls-1" d="M76,29.4c0,0-.1-.1-.2-.2l-23.1-.6c-.4.4-.8.9-1.2,1.4l24.5-.6h0Z"/>
      <path class="cls-1" d="M57.9,25.2c-.8.3-1.5.7-2.2,1.2l16.1-.4c-.3-.2-.6-.3-.9-.4l-13-.3Z"/>
      <path class="cls-1" d="M49,2.7s0,0-.1,0l-.7,27.1c.5-.3,1-.6,1.5-1l-.7-26h0Z"/>
      <path class="cls-1" d="M47.2,1.7h0s-.7,29-.7,29c.5-.2,1-.5,1.5-.8,0,0-.7-28.2-.7-28.2Z"/>
      <path class="cls-1" d="M52.6,6.2c0-.1-.2-.3-.3-.4l-.5,21c.5-.5.9-1,1.3-1.6l-.5-19h0Z"/>
      <path class="cls-1" d="M55.5,19.9c.3-1.2.5-2.5.5-3.9s-.1-2.2-.3-3.2l-.2,7.1h0Z"/>
      <path class="cls-1" d="M54.5,9.2c-.1-.3-.3-.6-.4-.9l-.4,16.1c.4-.7.8-1.5,1.2-2.2,0,0-.3-13-.3-13Z"/>
      <path class="cls-1" d="M50.6,4l-.6,24.5c.5-.4,1-.8,1.4-1.2l-.6-23.1c0,0-.1-.1-.2-.2Z"/>
      <path class="cls-1" d="M45.4.9s0,0,0,0l-.8,30.4c.5-.2,1-.3,1.5-.5l-.8-29.9h0Z"/>
      <path class="cls-1" d="M43.6.4h0l-.8,31.3c.5,0,1.1-.2,1.6-.4l-.8-31h0Z"/>
      <path class="cls-1" d="M41,32c.5,0,1.1,0,1.6-.2L41.8.1h0l-.8,31.9Z"/>
      <path class="cls-1" d="M32.9,1.7h0s-.7,28.3-.7,28.3c.5.3,1,.5,1.5.8,0,0-.7-29-.7-29Z"/>
      <path class="cls-1" d="M40,32c.3,0,.5,0,.8,0l-.8-32-.8,32c.3,0,.5,0,.8,0Z"/>
      <path class="cls-1" d="M34.7.9s0,0,0,0l-.8,29.9c.5.2,1,.4,1.5.5l-.8-30.4h0Z"/>
      <path class="cls-1" d="M36.5.4h0l-.8,31c.5.1,1,.3,1.6.4l-.8-31.3h0Z"/>
      <path class="cls-1" d="M24.3,12.8c-.2,1-.3,2.1-.3,3.2s.2,2.6.5,3.9l-.2-7.1h0Z"/>
      <path class="cls-1" d="M38.2.1h0l-.8,31.7c.5,0,1,.1,1.6.2L38.2.1Z"/>
      <path class="cls-1" d="M27.7,5.8c-.1.1-.2.3-.3.4l-.5,19c.4.6.8,1.1,1.3,1.6l-.5-21h0Z"/>
      <path class="cls-1" d="M31.2,2.7s0,0-.1,0l-.6,26c.5.4,1,.7,1.5,1l-.7-27.1h0Z"/>
      <path class="cls-1" d="M29.4,4c0,0-.1.1-.2.2l-.6,23.1c.4.4.9.9,1.4,1.2l-.6-24.5h0Z"/>
      <path class="cls-1" d="M25.2,22.1c.3.8.7,1.5,1.2,2.2l-.4-16.1c-.2.3-.3.6-.4.9l-.3,13Z"/>
      <path class="cls-1" d="M31,77.3s0,0,.1,0l.7-27.1c-.5.3-1,.6-1.5,1l.6,26h0Z"/>
      <path class="cls-1" d="M32.8,78.3s0,0,0,0l.7-29c-.5.2-1,.5-1.5.8l.7,28.2Z"/>
      <path class="cls-1" d="M27.4,73.8c.1.1.2.3.3.4l.5-21c-.5.5-.9,1-1.3,1.6l.5,19h0Z"/>
      <path class="cls-1" d="M24.5,60.1c-.3,1.2-.5,2.5-.5,3.9s.1,2.2.3,3.2l.2-7.1h0Z"/>
      <path class="cls-1" d="M25.5,70.8c.1.3.3.6.4.9l.4-16.1c-.4.7-.8,1.5-1.2,2.2l.3,13Z"/>
      <path class="cls-1" d="M29.4,76l.6-24.5c-.5.4-1,.8-1.4,1.2l.6,23.1c0,0,.1.1.2.2Z"/>
      <path class="cls-1" d="M34.6,79.1s0,0,0,0l.8-30.4c-.5.2-1,.3-1.5.5l.8,29.8h0Z"/>
      <path class="cls-1" d="M36.4,79.6h0l.8-31.3c-.5,0-1.1.2-1.6.4l.8,31h0Z"/>
      <path class="cls-1" d="M39,48c-.5,0-1.1,0-1.6.2l.8,31.7h0s.8-31.8.8-31.9Z"/>
      <path class="cls-1" d="M47.1,78.3s0,0,0,0l.7-28.2c-.5-.3-1-.5-1.5-.8l.7,29Z"/>
      <path class="cls-1" d="M40,48c-.3,0-.5,0-.8,0l.8,32,.8-32c-.3,0-.5,0-.8,0Z"/>
      <path class="cls-1" d="M45.3,79.1s0,0,0,0l.8-29.8c-.5-.2-1-.4-1.5-.5l.8,30.4h0Z"/>
      <path class="cls-1" d="M43.5,79.6h0l.8-31c-.5-.2-1-.3-1.6-.4l.8,31.3h0Z"/>
      <path class="cls-1" d="M55.7,67.2c.2-1,.3-2.1.3-3.2s-.2-2.7-.5-3.9l.2,7.1h0Z"/>
      <path class="cls-1" d="M41.8,79.9h0l.8-31.7c-.5,0-1-.1-1.6-.2l.8,31.8Z"/>
      <path class="cls-1" d="M52.3,74.2c0-.1.2-.3.3-.4l.5-19c-.4-.6-.8-1.1-1.3-1.6l.5,21h0Z"/>
      <path class="cls-1" d="M48.8,77.3s0,0,.1,0l.7-26c-.5-.3-1-.7-1.5-1l.7,27.1h0Z"/>
      <path class="cls-1" d="M50.6,76c0,0,.1-.1.2-.2l.6-23.1c-.4-.4-.9-.8-1.4-1.2l.6,24.5h0Z"/>
      <path class="cls-1" d="M54.8,57.9c-.3-.8-.7-1.5-1.2-2.2l.4,16.1c.2-.3.3-.6.4-.9l.3-13Z"/>
    </g>
  </g>
</svg>