<svg viewBox="92 92 310 275" fill="none" xmlns="http://www.w3.org/2000/svg">
<path d="M113.517 292C114.74 292 115.896 292.561 116.654 293.521L139.625 322.592L162.596 293.521C163.354 292.561 164.51 292 165.733 292H175C176.105 292 177 292.895 177 294V355C177 356.105 176.105 357 175 357H166C164.895 357 164 356.105 164 355V312.712L144.2 337.771C143.821 338.25 143.243 338.53 142.632 338.53H136.618C136.007 338.53 135.429 338.25 135.05 337.771L115 312.396V355C115 356.105 114.105 357 113 357H104C102.895 357 102 356.105 102 355V294C102 292.895 102.895 292 104 292H113.517ZM250 292C251.105 292 252 292.895 252 294V302C252 303.105 251.105 304 250 304H205V318.5H245C246.105 318.5 247 319.395 247 320.5V328.5C247 329.605 246.105 330.5 245 330.5H205V345H250C251.105 345 252 345.895 252 347V355C252 356.105 251.105 357 250 357H194C192.895 357 192 356.105 192 355V294C192 292.895 192.895 292 194 292H250ZM274.278 292C275.464 292 276.587 292.535 277.341 293.458L294.5 314.477L311.659 293.458C312.413 292.535 313.536 292 314.722 292H325.013C326.689 292 327.609 293.967 326.544 295.271L302.683 324.5L326.544 353.729C327.609 355.034 326.689 357 325.013 357H314.722C313.536 357 312.413 356.465 311.659 355.542L294.5 334.523L277.341 355.542C276.587 356.465 275.464 357 274.278 357H263.987C262.311 357 261.391 355.034 262.456 353.729L286.317 324.5L262.456 295.271C261.391 293.967 262.311 292 263.987 292H274.278ZM390 292C391.105 292 392 292.895 392 294V302.5C392 303.605 391.105 304.5 390 304.5H363.829C353.183 304.5 344.553 313.095 344.553 323.697V325.304C344.553 335.905 353.183 344.5 363.829 344.5H390C391.105 344.5 392 345.395 392 346.5V355C392 356.105 391.105 357 390 357H363.829C346.251 357 332 342.809 332 325.304V323.697C332 306.192 346.25 292 363.829 292H390Z" fill="black"/>
<path d="M285.76 102C295.146 102 305.521 107.366 309.968 118.585L344.55 204.683C353.442 226.634 337.139 251.999 311.697 252C297.864 252 284.278 244.926 277.114 227.609L247 154.216L216.886 227.609C209.722 244.926 196.136 252 182.304 252C156.861 252 140.557 226.634 149.45 204.683L184.032 118.585C188.478 107.366 198.854 102 208.24 102C218.368 102 227.26 108.098 232.941 120.049L247 149.631L261.058 120.049C266.74 108.098 275.632 102 285.76 102Z" fill="#0057FF"/>
</svg>
