<svg width="40" height="40" viewBox="0 0 512 512" fill="none" xmlns="http://www.w3.org/2000/svg">
  <path fill-rule="evenodd" clip-rule="evenodd"
    d="M256 512C397.385 512 512 397.385 512 256C512 114.615 397.385 0 256 0C114.615 0 0 114.615 0 256C0 397.385 114.615 512 256 512Z"
    fill="#0A0D11" />
  <path fill-rule="evenodd" clip-rule="evenodd"
    d="M256 504C392.967 504 504 392.967 504 256C504 119.033 392.967 8 256 8C119.033 8 8 119.033 8 256C8 392.967 119.033 504 256 504ZM512 256C512 397.385 397.385 512 256 512C114.615 512 0 397.385 0 256C0 114.615 114.615 0 256 0C397.385 0 512 114.615 512 256Z"
    fill="#544B40" />
  <path
    d="M223.511 236.776C220.898 234.349 216.792 237.522 218.845 240.695L250.948 292.582C252.254 294.449 251.694 297.062 249.641 298.182C248.895 298.742 248.148 298.928 247.402 298.928C246.095 298.928 244.789 298.182 244.042 297.062L198.501 230.243C196.448 227.443 191.968 229.683 193.088 233.043L226.871 325.245C227.431 327.112 226.871 329.165 225.004 330.098C224.258 330.471 223.511 330.845 222.764 330.845C221.085 330.845 219.592 329.725 219.032 328.045L176.103 235.282C174.61 231.923 169.571 233.229 170.131 236.962L190.288 350.069C190.475 351.936 189.542 353.802 188.048 354.549C185.012 355.763 180.849 357.221 179.836 352.496L156.692 247.788C155.946 244.241 150.719 244.801 150.533 248.348L151.839 363.134C151.839 365.187 150.346 366.867 148.293 367.241C146.427 367.614 144.373 367.8 142.32 367.987C139.894 368.174 137.841 366.307 137.654 364.068L135.228 261.226C135.041 257.307 129.815 256.933 129.069 260.666L108.538 362.948C108.164 365.187 106.111 366.681 103.871 366.307C99.5786 365.747 95.4725 364.814 91.1796 363.881C88.9399 363.321 87.6334 361.081 88.1933 358.842L127.015 172.383C129.442 160.064 140.267 151.105 153.146 151.105C160.612 151.105 167.331 154.092 172.184 158.758L288.65 275.224C291.263 277.651 295.369 274.478 293.316 271.305L261.213 219.418C259.907 217.551 260.467 214.938 262.52 213.818C263.267 213.258 264.013 213.072 264.76 213.072C266.066 213.072 267.373 213.818 268.119 214.938L313.661 281.757C315.714 284.557 320.193 282.317 319.073 278.957L285.291 186.755C284.731 184.888 285.477 182.835 287.157 181.902C287.904 181.529 288.65 181.155 289.397 181.155C291.077 181.155 292.57 182.275 293.13 183.955L336.058 276.718C337.551 280.077 342.591 278.771 342.031 275.038L321.873 161.931C321.686 160.064 322.62 158.198 324.113 157.451C327.149 156.237 331.313 154.779 332.325 159.504L355.469 264.212C356.216 267.759 361.442 267.199 361.629 263.652L360.322 148.866C360.322 146.813 361.815 145.133 363.868 144.759C365.735 144.386 367.788 144.2 369.841 144.013C372.267 143.826 374.32 145.693 374.507 147.932L376.933 250.774C377.12 254.693 382.346 255.067 383.093 251.334L403.624 149.052C403.997 146.813 406.05 145.319 408.29 145.693C412.583 146.253 416.689 147.186 420.982 148.119C423.221 148.679 424.528 150.919 423.968 153.159L385.146 339.617C382.719 351.936 371.894 360.895 359.015 360.895C351.55 360.895 344.83 357.908 339.978 353.242L223.511 236.776Z"
    fill="#E1D8C7" />
</svg>