<svg width="40" height="40" viewBox="0 0 40 40" fill="none" xmlns="http://www.w3.org/2000/svg">
<g clip-path="url(#clip0_633_998)">
<path d="M10.3799 2.90221L29.9919 14.2199V25.764L0 8.44789L9.61196 2.90221C9.72993 2.83853 9.86189 2.80519 9.99595 2.80519C10.13 2.80519 10.262 2.83853 10.3799 2.90221Z" fill="#3CA9E5"/>
<path d="M29.9919 14.2199V2.67586L19.9919 8.44788L29.9919 14.2199Z" fill="#2853C3"/>
<path d="M29.9919 2.67586L39.612 8.22153C39.7277 8.29192 39.8239 8.39024 39.8917 8.50748C39.9595 8.62472 39.9967 8.75712 40 8.89251V31.5279L29.9919 25.764V2.67586Z" fill="#1A4199"/>
<path d="M39.992 31.536L30.3801 37.0817C30.2572 37.1527 30.1178 37.19 29.9759 37.19C29.8339 37.19 29.6945 37.1527 29.5716 37.0817L9.96777 25.764V14.2038L39.992 31.536Z" fill="#2853C3"/>
<path d="M1.37083e-05 8.44795V31.0834C-0.000798691 31.2229 0.0345109 31.3602 0.102508 31.482C0.170505 31.6039 0.268875 31.706 0.388049 31.7786L10 37.3243V14.2038L1.37083e-05 8.44795Z" fill="#60BEFF"/>
<path d="M10 25.7639V37.308L19.9919 31.536L10 25.7639Z" fill="#3CA9E5"/>
</g>
<defs>
<clipPath id="clip0_633_998">
<rect width="40" height="40" fill="white"/>
</clipPath>
</defs>
</svg>
