<svg width="36" height="24" viewBox="0 0 36 24" fill="#1C1F21" xmlns="http://www.w3.org/2000/svg">
  <path
    d="M35.8445 0.655199C35.7917 0.573599 35.7125 0.5184 35.6213 0.4992L34.7477 0.311997C34.5773 0.311997 34.4429 0.427197 34.4213 0.585597L32.1653 12.4632C32.1221 12.6144 31.8797 12.5856 31.8917 12.42V12.4152L32.5853 0.338397C32.5853 0.165597 32.4581 0.0263971 32.2949 0.0119971C32.2205 0.00239707 32.1365 0 32.0429 0C31.8797 0 31.7477 0.124799 31.7333 0.287999L30.5333 14.2416C30.5237 14.4168 30.2861 14.4072 30.2693 14.2488L29.5109 0.467999C29.4989 0.321599 29.3813 0.211198 29.1893 0.211198C29.1845 0.211198 29.0045 0.24 29.0045 0.24C28.8701 0.2544 28.7669 0.374397 28.7669 0.518397L28.9925 15.2592C28.9877 15.4224 28.7549 15.4416 28.7261 15.2736L26.2853 1.3752C26.2637 1.2192 26.1341 1.1064 25.9781 1.1064C25.9397 1.1064 25.9013 1.1136 25.8221 1.1472C25.6733 1.2072 25.5941 1.344 25.6205 1.4784L27.4829 15.972C27.4949 16.1352 27.2645 16.1808 27.2165 16.0248L23.0261 3.0744C22.9781 2.952 22.8677 2.8752 22.7405 2.8752C22.6781 2.8752 22.6181 2.8944 22.5701 2.9304C22.4837 2.988 22.4381 3.0768 22.4501 3.2544L25.8677 16.2264C25.9013 16.38 25.6901 16.4568 25.6109 16.3104L25.6037 16.296L20.2157 5.5128C20.1725 5.4264 20.0885 5.3736 19.9949 5.3736C19.9229 5.3736 19.8533 5.4048 19.8101 5.4552C19.7645 5.4984 19.7405 5.5608 19.7405 5.6256C19.7405 5.64 19.7525 5.712 19.7573 5.724L24.2813 16.1016C24.3509 16.2504 24.1421 16.368 24.0437 16.2312L24.0293 16.2096L18.2789 8.1984C18.2333 8.1432 18.1685 8.112 18.1013 8.112C18.0821 8.112 17.9861 8.1504 17.9693 8.16C17.9165 8.196 17.8877 8.2536 17.8877 8.3208C17.8877 8.34 17.9117 8.4264 17.9237 8.4432L22.2797 15.0792C22.3685 15.2184 22.1813 15.3672 22.0613 15.2472C22.0613 15.2472 8.42928 1.4928 8.42208 1.4928C8.42208 1.4928 8.42208 1.4928 8.42208 1.4952C7.94208 1.0368 7.31568 0.784797 6.65808 0.784797C5.50368 0.784797 4.52208 1.5792 4.27008 2.7168L0.00768 23.076C-0.01152 23.1696 0.00528 23.2656 0.05808 23.3448C0.11088 23.4264 0.19008 23.4816 0.28368 23.5008L1.15728 23.688C1.32528 23.688 1.45968 23.5728 1.48368 23.4144L3.73728 11.5416C3.77808 11.3832 4.02528 11.412 4.01568 11.5824L3.32208 23.664C3.32208 23.8368 3.44928 23.976 3.61488 23.9904C3.67728 24 3.74928 24 3.81168 24C3.82128 24 3.86208 24 3.86688 24C4.02768 24 4.16208 23.8752 4.17648 23.712L5.37648 9.7608C5.38608 9.5808 5.63328 9.5904 5.64528 9.7608L6.39888 23.5344C6.41088 23.6808 6.52848 23.7912 6.72048 23.7912C6.72528 23.7912 6.90528 23.7624 6.90528 23.7624C7.03968 23.748 7.14288 23.628 7.14288 23.484L6.91488 8.748C6.91488 8.5776 7.15248 8.5584 7.18368 8.7264L9.62448 22.6248C9.64608 22.7808 9.77568 22.8936 9.93168 22.8936C9.97008 22.8936 10.0085 22.8864 10.0877 22.8528C10.2341 22.7952 10.3157 22.6584 10.2893 22.5216L8.42448 8.0352C8.40528 7.8672 8.64288 7.8168 8.69328 7.9752V7.98L12.8837 20.9232C12.9317 21.0456 13.0421 21.1248 13.1693 21.1248C13.2317 21.1248 13.2917 21.1056 13.3397 21.0696C13.4261 21.012 13.4717 20.9232 13.4597 20.7432L10.0421 7.776C10.0013 7.6152 10.2197 7.536 10.2989 7.6848L15.6917 18.4824C15.7349 18.5664 15.8189 18.6192 15.9125 18.6192C15.9845 18.6192 16.0541 18.588 16.0973 18.5376C16.1405 18.4944 16.1669 18.432 16.1669 18.3672C16.1669 18.3528 16.1549 18.2808 16.1501 18.2688L11.6261 7.8912C11.5565 7.7424 11.7653 7.6248 11.8637 7.7616L11.8757 7.7784L17.6285 15.7944C17.6741 15.8496 17.7389 15.8808 17.8061 15.8808C17.8253 15.8808 17.9213 15.8424 17.9357 15.8328C17.9909 15.7968 18.0197 15.7392 18.0197 15.6696C18.0197 15.6504 17.9957 15.564 17.9837 15.5472L13.6277 8.9112C13.5389 8.772 13.7261 8.6256 13.8437 8.7408C26.8925 21.7824 27.4733 22.4952 27.4853 22.4952C27.4853 22.4952 27.4853 22.4952 27.4853 22.4928C27.9653 22.9512 28.5917 23.2032 29.2493 23.2032C30.4013 23.2032 31.3829 22.4088 31.6373 21.2712L35.8997 0.916798C35.9189 0.823198 35.9021 0.727199 35.8493 0.647999L35.8445 0.655199Z" />
</svg>