<svg xmlns="http://www.w3.org/2000/svg" width="128" height="128">
  <path d="M0 0h128v128H0V0z" fill="#FDFDFD" />
  <path
    d="M59 44a763.515 763.515 0 01-.438 4.375c-.08.812-.162 1.624-.246 2.46C58 53 58 53 57 55l8-1 1 2c-1.063 1.875-1.063 1.875-3 4l-3.5.563c-3.647 1.034-3.647 1.034-4.621 3.863C53.684 68.74 53 72.508 53 77c3.006-.389 3.006-.389 6-2 1.045-3.514 1.045-3.514 1.445-5.965C61.635 64.667 65.413 62.391 69 60c2.438.313 2.438.313 5 1l4 1-1 15 3-1a84.875 84.875 0 002.5-8.188l.647-2.438C84.997 58.298 86.581 51.174 88 44c2.375-.125 2.375-.125 5 0l2 2c-.443 5.427-1.763 10.705-3 16l1.875-2C96 58 96 58 98 58l.75-1.938C100 54 100 54 102.125 53.25L104 53l1 4-10 9c1.312 6.662 2.458 12.24 7.188 17.375C105.898 85.52 108.805 85.739 113 85c2.818-1.389 2.818-1.389 5-3h2c-.25 2.375-.25 2.375-1 5-4.895 3.387-11.344 2.563-17 2-5.662-2.583-8.703-6.599-10.91-12.387-.74-2.19-1.42-4.4-2.09-6.613l-1 11c-2.875.625-2.875.625-6 1l-2-2-2 2c-1.875-.375-1.875-.375-4-1-3.926-.12-3.926-.12-7.438.625C63 82 63 82 60.376 80.937 57.185 79.678 56.109 80.743 53 82c-3.75-.25-3.75-.25-7-1-2.154-4.308-.252-10.156 1.063-14.563L48 64l-2.25 1.063c-2.882.982-3.962.97-6.75-.063l-1-4a562.649 562.649 0 014.313-2l2.425-1.125C47 57 47 57 50 57l.043-1.828c.392-6.562.392-6.562 3.332-9.734C56 44 56 44 59 44z"
    fill="#0C2835" />
  <path
    d="M37.063 37.25c2.93 1.746 4.454 2.696 5.937 5.75.5 2.938.5 2.938 0 6-2.188 2.875-2.188 2.875-5 5-2.813.313-2.813.313-5 0 0-3 0-3 2-6 .25-2.584.25-2.584 0-5-1.79-1.79-4.33-1.256-6.75-1.313-4.09.025-5.857.082-9.438 2.188-2.079 2.437-2.732 3.734-3.375 6.875.632 3.647.972 4.01 3.75 6.188 4.698 3.21 9.766 5.736 14.86 8.253C37.24 67.147 39.004 68.841 41 72c.685 3.954-.177 7.573-2.172 11.031C34.444 88.594 29.038 91.141 22 92c-4.428.453-7.093.58-10.938-1.875-3.143-3.238-3.396-5.508-3.355-10.02.47-3.38 2.156-5.528 4.293-8.105 2.957-1.478 5.742-1.06 9-1l1 3-2.375.938c-3.818 3-3.972 6.416-4.625 11.062 5.96.314 9.722-.15 15-3 2.136-3.204 2.231-4.02 2.125-7.688l-.055-2.449L32 71l-2.027-.762c-3.616-1.506-7.065-3.239-10.535-5.05l-1.999-1.002C13.342 62.04 10.507 60.026 8 56c-1.07-4.522-.401-8.182 1.625-12.313 6.96-7.874 17.522-10.344 27.438-6.437z"
    fill="#0C2835" />
  <path
    d="M117 60l3 2c-.483 6.404-.483 6.404-2.625 8.875-3.088 1.463-5.992 1.8-9.375 2.125v4c5.309-.582 5.309-.582 10-3l1 4c-3.037 2.314-5.26 3.88-9.063 4.5-3.648-.621-5.307-1.945-7.937-4.5-1.433-2.866-1.306-4.813-1-8 3.832-7.097 7.678-10.925 16-10z"
    fill="#132E3B" />
  <path
    d="M71 64h2a348.063 348.063 0 01-.375 4.25c-.07.789-.14 1.578-.21 2.39-.43 2.446-1.201 4.208-2.415 6.36h-5c.367-6.124 1.787-8.787 6-13z"
    fill="#F1F2F3" />
  <path d="M69 86h9v6h-5v-4h-2v4h-2v-6z" fill="#2B434F" />
  <path d="M63 86l5 1-1 5-5-1 1-5z" fill="#3E545F" />
  <path d="M115 63c-.313 2.875-.313 2.875-1 6-3 2-3 2-6 2 2.81-8 2.81-8 7-8z" fill="#E8EBEC" />
  <path d="M57 86h4v2h-3v2h3v2l-5-1 1-5z" fill="#2C4450" />
</svg>