<?xml version="1.0" encoding="UTF-8"?>
<svg version="1.1" xmlns="http://www.w3.org/2000/svg" width="128" height="128">
<path d="M0 0 C42.24 0 84.48 0 128 0 C128 42.24 128 84.48 128 128 C85.76 128 43.52 128 0 128 C0 85.76 0 43.52 0 0 Z " fill="#223844" transform="translate(0,0)"/>
<path d="M0 0 C1.32 0 2.64 0 4 0 C3.67 3.3 3.34 6.6 3 10 C6.465 9.505 6.465 9.505 10 9 C10 12 10 12 8 15 C4.375 16.1875 4.375 16.1875 1 17 C0.01 21.62 -0.98 26.24 -2 31 C3.86882049 29.81767155 3.86882049 29.81767155 5.03125 27.01171875 C5.1859375 26.24472656 5.340625 25.47773437 5.5 24.6875 C6.40697703 21.46095529 7.19597298 19.23102348 9.625 16.875 C14.30627062 14.2742941 16.81640122 14.97898812 22 16 C21.67 20.95 21.34 25.9 21 31 C21.99 30.67 22.98 30.34 24 30 C24.98828126 27.21292632 25.78286092 24.54515146 26.5 21.6875 C26.71358154 20.87748535 26.92716309 20.0674707 27.1472168 19.23291016 C27.77837766 16.82519252 28.3916522 14.41357033 29 12 C29.32613281 10.72511719 29.65226562 9.45023438 29.98828125 8.13671875 C30.67285734 5.4276143 31.34487983 2.71635192 32 0 C33.66611905 -0.042721 35.33382885 -0.04063832 37 0 C38 1 38 1 38.1875 3.75 C37.99984855 7.00262513 37.24884011 9.03400474 36 12 C36 13.32 36 14.64 36 16 C39.19199167 13.58443874 41.74716687 11.31996462 44 8 C45.32 8.33 46.64 8.66 48 9 C47.62521489 11.72462824 47.20298821 12.81203206 45.15234375 14.7109375 C44.42144531 15.26007812 43.69054687 15.80921875 42.9375 16.375 C39.73412513 19.03251457 39.73412513 19.03251457 38.1875 22.8125 C39.68627672 28.69231637 41.85503536 34.57002357 47 38 C52.69079125 38.83464938 57.0568646 38.04192948 62 35 C61.875 37.3125 61.875 37.3125 61 40 C57.19482237 42.6914671 53.69128129 43.54807971 49.01953125 43.3515625 C44.31645462 42.5328451 40.99483284 40.02172022 37.6875 36.625 C34.84332087 32.20072135 33.69108748 28.25151292 34 23 C33.34 23 32.68 23 32 23 C32 26.96 32 30.92 32 35 C23 35 23 35 19.4375 34.4375 C16.14687006 33.69466488 16.14687006 33.69466488 14 35 C10.09746841 35.14453821 6.76224607 34.97539713 3 34 C2.01 34.495 2.01 34.495 1 35 C-0.875 35.16796875 -0.875 35.16796875 -3 35.1875 C-3.70125 35.20167969 -4.4025 35.21585938 -5.125 35.23046875 C-7 35 -7 35 -9 33 C-9.01171875 31.01171875 -9.01171875 31.01171875 -8.6875 28.6875 C-8.57921875 27.88828125 -8.4709375 27.0890625 -8.359375 26.265625 C-7.9725851 23.82716693 -7.54388973 21.40865454 -7 19 C-9.31 19.33 -11.62 19.66 -14 20 C-14.33 18.35 -14.66 16.7 -15 15 C-13.96939453 14.72349609 -13.96939453 14.72349609 -12.91796875 14.44140625 C-7.44591723 12.825391 -7.44591723 12.825391 -3.73828125 8.80078125 C-2.97122668 6.40503786 -2.97122668 6.40503786 -2.5 4.0234375 C-2 2 -2 2 0 0 Z " fill="#F3F4F5" transform="translate(55,46)"/>
<path d="M0 0 C4.29464286 2.97321429 4.29464286 2.97321429 5.4375 4.6875 C6.01727821 8.49747107 5.71122261 10.22115777 3.75 13.5625 C1.4375 15.6875 1.4375 15.6875 -1.3125 16 C-2.055 15.896875 -2.7975 15.79375 -3.5625 15.6875 C-3.5625 12.6875 -3.5625 12.6875 -1.5625 9.6875 C-1.71951426 7.06834878 -1.71951426 7.06834878 -2.5625 4.6875 C-5.77331678 3.08209161 -9.07960355 3.20286691 -12.5625 3.6875 C-16.81916699 5.92912425 -16.81916699 5.92912425 -19.5625 9.6875 C-20.04775713 13.99144793 -20.04775713 13.99144793 -18.01171875 17.63671875 C-14.38181091 20.67611526 -10.29260888 22.54458803 -6.05078125 24.59960938 C-1.89027652 26.70477494 0.86905189 28.64219422 3.4375 32.6875 C4.05151144 36.90882866 3.75390164 39.06686602 1.8125 42.875 C-3.02746413 48.60653647 -8.45297957 51.02792335 -15.83203125 51.98046875 C-20.03299967 52.23823961 -22.02304882 52.03979465 -25.625 49.6875 C-27.65579388 46.54304496 -28.2304863 44.43778072 -27.99609375 40.6875 C-27.28972387 37.42928939 -25.66095769 35.21799309 -23.5625 32.6875 C-20.85370665 31.33310332 -18.55316732 31.62248549 -15.5625 31.6875 C-15.2325 32.6775 -14.9025 33.6675 -14.5625 34.6875 C-15.5525 35.409375 -16.5425 36.13125 -17.5625 36.875 C-20.22562709 39.0548598 -20.22562709 39.0548598 -21 42.4375 C-20.78764289 44.64873766 -20.78764289 44.64873766 -19.5625 45.6875 C-14.35422983 46.09599178 -10.96546959 45.55454996 -6.5625 42.6875 C-4.98756437 40.5398605 -4.59656692 38.82036099 -3.9375 36.25 C-4.69944263 33.1260352 -5.35520295 32.86481662 -8 31.1875 C-9.50831557 30.33171812 -11.03010005 29.49936752 -12.5625 28.6875 C-24.80574324 22.20101351 -24.80574324 22.20101351 -27.5625 16.6875 C-27.94273402 12.12469181 -27.98988029 9.61349062 -26.0625 5.4375 C-19.18360157 -2.12928827 -9.52455289 -3.5090458 0 0 Z " fill="#F4F5F6" transform="translate(38.5625,39.3125)"/>
<path d="M0 0 C0.66 0.66 1.32 1.32 2 2 C1.916552 5.83860799 1.43459697 7.52815186 -1.1875 10.375 C-4.41971069 12.24249951 -6.32823991 12.34155908 -10 12 C-9.67 12.99 -9.34 13.98 -9 15 C-4.2102679 15.23428313 -4.2102679 15.23428313 0 13 C0.33 14.32 0.66 15.64 1 17 C-3.48866896 20.36650172 -6.56580509 20.6900565 -12 20 C-14.97196722 17.47382787 -15.84766893 15.89494501 -16.5 12.0625 C-15.73791133 7.39470689 -13.42283929 4.52447067 -10.25 1.125 C-6.71929806 -0.64035097 -3.92482418 -0.31651808 0 0 Z " fill="#F1F2F3" transform="translate(115,61)"/>
<path d="M0 0 C0.66 0 1.32 0 2 0 C2.28855285 4.9053984 2.26204794 8.1554435 -1 12 C-2.32 12 -3.64 12 -5 12 C-4.58894145 6.75900345 -3.75960806 3.75960806 0 0 Z " fill="#2C414C" transform="translate(70,65)"/>
<path d="M0 0 C6.15234375 -0.09765625 6.15234375 -0.09765625 8 0 C9 1 9 1 9.0625 3.5625 C9.041875 4.366875 9.02125 5.17125 9 6 C8.34 6 7.68 6 7 6 C7 4.68 7 3.36 7 2 C6.34 2 5.68 2 5 2 C5 3.32 5 4.64 5 6 C3.35 6 1.7 6 0 6 C0 4.02 0 2.04 0 0 Z " fill="#CBD0D3" transform="translate(69,85)"/>
<path d="M0 0 C1.32 0 2.64 0 4 0 C4.33 1.65 4.66 3.3 5 5 C3.35 5.33 1.7 5.66 0 6 C-0.38218767 4.34385343 -0.71395102 2.67542976 -1 1 C-0.67 0.67 -0.34 0.34 0 0 Z " fill="#BEC4C8" transform="translate(63,85)"/>
<path d="M0 0 C-0.37047118 2.74148672 -0.68587944 4.58593199 -2.375 6.8125 C-4 8 -4 8 -7 8 C-4.18918919 0 -4.18918919 0 0 0 Z " fill="#334752" transform="translate(113,63)"/>
<path d="M0 0 C0.99 0 1.98 0 3 0 C3 0.66 3 1.32 3 2 C2.01 2 1.02 2 0 2 C0 2.66 0 3.32 0 4 C0.99 4 1.98 4 3 4 C3 4.66 3 5.32 3 6 C1.35 5.67 -0.3 5.34 -2 5 C-1.125 1.125 -1.125 1.125 0 0 Z " fill="#D4D8DA" transform="translate(58,85)"/>
</svg>
