<svg xmlns="http://www.w3.org/2000/svg" viewBox="0 0 49.8 52">
  <defs>
    <mask id="loader-mask" x="2.4" y="-9.03" width="45" height="69.77" maskUnits="userSpaceOnUse">
      <path d="M2.9,13.5,18.5,4.6l15.7,9v3.9L18.6,8.6,2.9,17.5Zm3.5,9.2,12.2-6.9,15.6,8.9v-4L18.7,11.8,2.9,20.7V38.5l3.5,2Zm37-11.2-.1,17.8L27.7,38.2l3.5,2,15.7-9V13.5Zm-6.3.4V25.7L21.4,34.6,25,36.7l15.6-8.9V9.9L24.9,1,21.4,3ZM28.4,49,12.8,40.1V22.2l-3.5,2V42.1L24.9,51Zm2.8-5.6L19,36.5l.1-17.8-3.6,2V38.4l15.6,9,15.7-8.9v-4Z" fill="#fff"/>
    </mask>
  </defs>
  <path id="logo-fill" d="M2.9,13.5,18.5,4.6l15.7,9v3.9L18.6,8.6,2.9,17.5Zm3.5,9.2,12.2-6.9,15.6,8.9v-4L18.7,11.8,2.9,20.7V38.5l3.5,2Zm37-11.2-.1,17.8L27.7,38.2l3.5,2,15.7-9V13.5Zm-6.3.4V25.7L21.4,34.6,25,36.7l15.6-8.9V9.9L24.9,1,21.4,3ZM28.4,49,12.8,40.1V22.2l-3.5,2V42.1L24.9,51Zm2.8-5.6L19,36.5l.1-17.8-3.6,2V38.4l15.6,9,15.7-8.9v-4Z" fill="#63a6b9"/>
  <g mask="url(#loader-mask)" fill="none" stroke="#63a6b9" stroke-miterlimit="10">
    <g id="logo-stroke">
      <g id="part-1">
        <path d="M2.9,13.5,18.5,4.6l15.7,9v3.9L18.6,8.6,2.9,17.5Z" stroke-dashoffset="79.96430969238281" stroke-dasharray="79.96430969238281"/>
        <path d="M6.4,40.5l-3.5-2V20.7l15.8-8.9,15.5,8.9v4L18.6,15.8,6.4,22.7Z" stroke-dashoffset="111.61508178710938" stroke-dasharray="111.61508178710938"/>
      </g>
      <g id="part-2">
        <path d="M46.9,13.5V31.2l-15.7,9-3.5-2,15.6-8.9.1-17.8Z" stroke-dashoffset="79.61945343017578" stroke-dasharray="79.61945343017578"/>
        <path d="M21.4,3l3.5-2L40.6,9.9V27.8L25,36.7l-3.6-2.1,15.7-8.9V11.9Z" stroke-dashoffset="112.00057220458984" stroke-dasharray="112.00057220458984"/>
      </g>
      <g id="part-3">
        <path d="M24.9,51,9.3,42.1V24.2l3.5-2V40.1L28.4,49Z" stroke-dashoffset="79.78271484375" stroke-dasharray="79.78271484375"/>
        <path d="M46.8,34.5v4L31.1,47.4l-15.6-9V20.7l3.6-2L19,36.5l12.2,6.9Z" stroke-dashoffset="111.65198516845703" stroke-dasharray="111.65198516845703"/>
      </g>
    </g>
  </g>
  <style>
    @keyframes draw-in-loader {
      30%, 70% { stroke-dashoffset: 0; }
    }
    @keyframes fade-in-loader {
      0%, 30%, 70%, 100% { opacity: 0; }
      40%, 60% { opacity: 1; }
    }
    #logo-stroke path { animation: draw-in-loader 10s ease-in-out both infinite; }
    #logo-fill { animation: fade-in-loader 10s linear both infinite; }
    @media (prefers-reduced-motion: reduce) {
      #logo-stroke path, #logo-fill { animation: none; }
      #logo-stroke path { stroke-dashoffset: 0; }
      #logo-fill { opacity: 1; }
    }
  </style>
</svg>
