<svg width="15" height="15" viewBox="0 0 15 15" fill="none" xmlns="http://www.w3.org/2000/svg">
<path d="M7.60013 14C7.70013 14 7.90013 13.9 8.10013 13.7L10.8001 10.7C11.0001 10.5 11.0001 10.3 10.9001 10.1C10.7001 9.9 10.4001 9.9 10.2001 10.1L8.10013 12.4L8.10013 0.4C8.10013 0.1 7.90013 -1.34005e-07 7.60013 -1.47119e-07C7.30013 -1.60232e-07 7.10013 0.2 7.10013 0.5L7.10013 12.5L4.80013 10.2C4.60013 10 4.40013 10 4.20013 10.1C4.10013 10.2 4.00013 10.3 4.00013 10.5C4.00013 10.7 4.10013 10.8 4.20013 10.9L7.10013 13.7C7.20013 13.9 7.40013 14 7.60013 14Z" fill="white"/>
<path fill-rule="evenodd" clip-rule="evenodd" d="M1 14V12H0V15H15V12H14V14H1Z" fill="white"/>
</svg>
