<svg xmlns="http://www.w3.org/2000/svg" viewBox="0 0 34.397 34.397">
  <rect x="12.075" y="2.088" width="10.189" height="10.189" rx=".054" ry=".054" transform="rotate(-45 17.17 7.182)"
    fill="#2085f0"></rect>
  <rect x="12.069" y="22.118" width="10.189" height="10.189" rx=".047" ry=".047" transform="rotate(-45 17.163 27.212)"
    fill="#2085f0"></rect>
  <path
    d="M7.11 10.056L.016 17.172a.053.053 0 000 .075l7.094 7.086a.053.053 0 00.075 0l7.094-7.1a.053.053 0 000-.076l-7.094-7.102a.053.053 0 00-.075 0zm-4.63 7.116l4.63-4.65a.053.053 0 01.075 0l4.63 4.634a.053.053 0 010 .076l-4.63 4.635a.053.053 0 01-.075 0l-4.63-4.62a.053.053 0 010-.076zm24.666-7.115l-7.1 7.115a.05.05 0 000 .072l7.1 7.086a.05.05 0 00.072 0l7.1-7.1a.05.05 0 000-.072l-7.1-7.1a.05.05 0 00-.072 0zm-4.635 7.115l4.635-4.65a.051.051 0 01.072 0l4.635 4.636a.051.051 0 010 .072l-4.635 4.635a.05.05 0 01-.072 0l-4.635-4.62a.05.05 0 010-.072z"
    fill="#91cdff"></path>
</svg>