<svg width="120" height="120" viewBox="0 0 120 120" fill="none" xmlns="http://www.w3.org/2000/svg">
  <!-- Background -->
  <defs>
    <linearGradient id="errorGradient" x1="0%" y1="0%" x2="100%" y2="100%">
      <stop offset="0%" style="stop-color:#fee2e2"/>
      <stop offset="100%" style="stop-color:#fecaca"/>
    </linearGradient>
  </defs>
  
  <!-- Background circle -->
  <circle cx="60" cy="60" r="50" fill="url(#errorGradient)" stroke="#fca5a5" stroke-width="2"/>
  
  <!-- Warning triangle -->
  <path d="M60 25 L85 70 L35 70 Z" fill="#dc2626" stroke="#b91c1c" stroke-width="2" stroke-linejoin="round"/>
  
  <!-- Exclamation mark -->
  <g fill="#ffffff">
    <!-- Exclamation line -->
    <rect x="57" y="40" width="6" height="20" rx="3"/>
    <!-- Exclamation dot -->
    <circle cx="60" cy="67" r="3"/>
  </g>
  
  <!-- Error message lines -->
  <g stroke="#ef4444" stroke-width="2" stroke-linecap="round" opacity="0.6">
    <line x1="35" y1="85" x2="85" y2="85"/>
    <line x1="40" y1="92" x2="80" y2="92"/>
    <line x1="45" y1="99" x2="75" y2="99"/>
  </g>
  
  <!-- Subtle "broken" elements -->
  <g stroke="#dc2626" stroke-width="1.5" opacity="0.3">
    <!-- Small broken connection indicators -->
    <path d="M25 30 L30 25 M30 30 L25 25"/>
    <path d="M90 30 L95 25 M95 30 L90 25"/>
    <path d="M25 90 L30 95 M30 90 L25 95"/>
    <path d="M90 90 L95 95 M95 90 L90 95"/>
  </g>
</svg>