<svg viewBox="0 0 33 38" fill="none" xmlns="http://www.w3.org/2000/svg">
<path d="M0 9.39999L11.4 2.79999L23 9.39999V12.4L11.5 5.79999L0 12.4V9.39999Z" fill="#6CADBD"/>
<path d="M2.6 29.5L0 28V14.7L11.6 8.09998L23 14.7V17.7L11.5 11.1L2.6 16.3V29.5Z" fill="#6CADBD"/>
<path d="M32.3 9.39996V22.6L20.8 29.2L18.2 27.8L29.7 21.1V7.89996L32.3 9.39996Z" fill="#6CADBD"/>
<path d="M13.6 1.59998L16.1 0.0999756L27.6 6.69998V20L16.2 26.6L13.6 25.1L25 18.5L25.1 8.19998L13.6 1.59998Z" fill="#6CADBD"/>
<path d="M16.1 37.3L4.7 30.7V17.4L7.3 15.9L7.2 29.1L18.7 35.8L16.1 37.3Z" fill="#6CADBD"/>
<path d="M32.2 25V28L20.7 34.5999L9.2 27.9V14.7999L11.8 13.2V26.5L20.8 31.5999L32.2 25Z" fill="#6CADBD"/>
</svg>
