<svg xmlns="http://www.w3.org/2000/svg" viewBox="450 20 280 330">
  <path
    d="M568.535 29.703l63.766 36.789h.066l7.551 4.395-24.16 13.934h-.07l-62.937 36.375v26.906l86.277-49.828 24.16-13.934 32.945 19.012 6.109 3.5v44.957l-24.297 14.004-85.523 49.418 23.336 13.453 68.293-39.465 18.191-10.504v89.434l-6.109 3.504-28.141 16.266v-1.168l-13.453-7.754-9.746-5.629 33.152-19.152v-33.562l-38.027 21.965.137.07-24.297 13.93-24.23-14-23.266-13.453-12.148-7-12.082-6.934 133.914-77.355v-17.09l-14.758-8.512-134.668 77.766v-82.773l63.078-36.379-29.102-16.816-57.793 33.355h.066l-4.871 2.816v133.02l121.008 69.871 19.012 10.984-7.551 4.391h-.066l-63.766 36.789-6.039 3.504-6.039-3.504-127.668-73.645-6.039-3.504V106.852l6.039-3.5 18.188-10.5v161.363l115.52 66.719 29.031-16.816-110.781-63.973-5.078-2.949V76.309l16.953-9.816h.07l63.766-36.789 6.039-3.5zm0 0"
    fill-rule="evenodd" />
</svg>