<svg xmlns="http://www.w3.org/2000/svg" width="24" height="24" fill="none">
<path stroke="#00B1C1" d="M5.5 5.5h5v5h-5z" id="qr-stroke1" />
<g fill="#00B1C1" id="qr-fill1">
<path d="M7 7h2v2H7zM0 1h1v4H0zm23 0h1v4h-1zM0 19h1v4H0z"/>
<path d="M23 19h1v4h-1zM5 0v1H0V0zm19 0v1h-5V0zM5 23v1H0v-1z"/>
<path d="M24 23v1h-5v-1zM7 15h2v2H7zm8-8h2v2h-2zm3 9h1v3h-1zm-5 1h2v2h-2zm4-4h2v2h-2zm-1 5h1v1h-1zm0-2h1v1h-1z"/>
<path d="M13 13h3v3h-3z"/>
</g>
<path d="M5.5 13.5h5v5h-5zm8-8h5v5h-5z" stroke="#00B1C1" id="qr-stroke2"/>
</svg>