<svg width="24" height="24" viewBox="0 0 24 24" fill="none" xmlns="http://www.w3.org/2000/svg">
<path d="M9.42188 14.3438C10.0781 14.3438 10.5938 13.8281 10.5938 13.1719C10.5938 12.5625 10.0781 12 9.42188 12C8.76562 12 8.25 12.5625 8.25 13.1719C8.25 13.8281 8.76562 14.3438 9.42188 14.3438ZM23.625 12C23.625 5.57812 18.4219 0.375 12 0.375C5.57812 0.375 0.375 5.57812 0.375 12C0.375 18.4219 5.57812 23.625 12 23.625C18.4219 23.625 23.625 18.4219 23.625 12ZM17.3906 10.0781C19.0312 10.0781 19.5469 12.2812 18.0938 13.0312C18.1406 13.2656 18.1875 13.5 18.1875 13.7812C18.1875 16.2188 15.4219 18.2344 12 18.2344C8.57812 18.2344 5.8125 16.2188 5.8125 13.7812C5.8125 13.5 5.8125 13.2656 5.85938 13.0312C4.40625 12.2812 4.92188 10.0781 6.5625 10.0781C6.98438 10.0781 7.40625 10.2656 7.6875 10.5469C8.71875 9.84375 10.125 9.375 11.6719 9.32812L12.6094 5.25C12.6094 5.10938 12.75 5.01562 12.8906 5.0625L15.7969 5.67188C15.9844 5.29688 16.3594 5.0625 16.8281 5.0625C17.4844 5.0625 18 5.57812 18 6.23438C18 6.84375 17.4844 7.35938 16.8281 7.35938C16.1719 7.35938 15.6562 6.84375 15.6562 6.23438L13.0781 5.625L12.2344 9.32812C13.8281 9.375 15.2344 9.84375 16.2656 10.5469C16.5938 10.2656 16.9688 10.0781 17.3906 10.0781ZM14.1562 15.5156C13.3125 16.4062 10.5938 16.3594 9.79688 15.5156C9.70312 15.4219 9.51562 15.4219 9.375 15.5156C9.28125 15.6562 9.28125 15.8438 9.375 15.9375C10.4531 17.0156 13.5 17.0156 14.5781 15.9375C14.6719 15.8438 14.6719 15.6562 14.5781 15.5156C14.4375 15.4219 14.2969 15.4219 14.1562 15.5156ZM14.5312 12C13.875 12 13.3594 12.5625 13.3594 13.1719C13.3594 13.8281 13.9219 14.3438 14.5312 14.3438C15.1875 14.3438 15.7031 13.8281 15.7031 13.1719C15.7031 12.5625 15.1875 12 14.5312 12Z" fill="#00B1C1"/>
</svg>
