<svg xmlns="http://www.w3.org/2000/svg" viewBox="165 120 790 150">
  <defs>
    <clipPath id="A">
      <path d="M103.59 120.676h127.613v147.113H103.59zm0 0" clip-rule="nonzero" />
    </clipPath>
    <clipPath id="B">
      <path d="M200 222h29v19h-29zm0 0" clip-rule="nonzero" />
    </clipPath>
    <clipPath id="C">
      <path d="M206.117 245.395l-5.613-9.797 22.559-12.926 5.613 9.797zm0 0" clip-rule="nonzero" />
    </clipPath>
    <clipPath id="D">
      <path d="M183.547 258.324l-63.441-110.727 127.648-73.133 63.441 110.727zm0 0" clip-rule="nonzero" />
    </clipPath>
    <path id="E"
      d="M328.862 164.734c6.957-2.844 13.941-4.266 20.953-4.266 17.188 0 25.781 8.594 25.781 25.781v38.672c-4.305 4.305-12.898 6.453-25.781 6.453-17.187 0-25.781-7.305-25.781-21.922 0-15.469 12.891-23.203 38.672-23.203 0-8.594-4.297-12.891-12.891-12.891-5.762 0-11.5.969-17.219 2.906zm33.844 34.406c-17.187 0-25.781 3.438-25.781 10.313 0 6.023 4.297 9.031 12.891 9.031 2.188 0 4.332-.102 6.438-.312 2.102-.219 4.254-.547 6.453-.984zm0 0" />
    <path id="F"
      d="M581.847 192.703c0-21.488 9.234-32.234 27.703-32.234 17.625 0 26.438 10.746 26.438 32.234 0 6.449-1.078 9.672-3.234 9.672h-38.016c0 10.742 4.297 16.109 12.891 16.109 8.457 0 15.223-.945 20.297-2.844l2.453 11.938c-4.469 2.531-12.055 3.797-22.75 3.797-17.187 0-25.781-10.742-25.781-32.234zm41.25-2.578c0-11.176-4.516-16.766-13.547-16.766-9.875 0-14.812 5.59-14.812 16.766zm0 0" />
    <path id="G"
      d="M878.331 163.703c4.414-2.156 13.008-3.234 25.781-3.234 2.957 0 5.66.262 8.109.781l-2.891 12.766c-1.418-.437-3.156-.656-5.219-.656-2.199 0-4.352.109-6.453.328s-4.25.543-6.437.969v56.719h-12.891zm0 0" />
  </defs>
  <g fill="#fff">
    <path
      d="M253.136 160.469h14.813l14.188 27.078 14.172-27.078h14.828l-19.328 35.453 19.328 35.453h-14.828l-14.172-27.078-14.187 27.078h-14.812l19.328-35.453zm0 0" />
    <use href="#E" />
    <path
      d="M388.488 141.469l12.891-3.234v24.5c4.289-1.289 8.586-1.937 12.891-1.937 17.188 0 25.781 9.668 25.781 29v41.578H427.16v-41.578c0-10.738-4.297-16.109-12.891-16.109-2.199 0-4.352.109-6.453.328-2.105.211-4.25.531-6.437.969v56.391h-12.891zm0 0" />
    <use href="#E" x="128.907" />
    <path
      d="M517.394 160.469h12.891v45.125c0 8.594 4.297 12.891 12.891 12.891 2.188 0 4.332-.102 6.438-.312 2.102-.219 4.254-.547 6.453-.984v-56.719h12.891v64.453c-4.305 4.305-12.898 6.453-25.781 6.453-17.187 0-25.781-8.594-25.781-25.781zm0 0" />
    <use href="#F" />
    <path
      d="M646.3 160.469h14.813l14.188 27.078 14.172-27.078H704.3l-19.328 35.453 19.328 35.453h-14.828L675.3 204.297l-14.187 27.078H646.3l19.328-35.453zm70.898 3.234c4.289-2.156 12.883-3.234 25.781-3.234 17.188 0 25.781 9.672 25.781 29.016v12.891c0 19.336-8.594 29-25.781 29-4.305 0-8.602-.645-12.891-1.937v27.719l-12.891 3.219zm38.672 25.781c0-10.75-4.297-16.125-12.891-16.125-2.199 0-4.352.109-6.453.328a73.63 73.63 0 0 0-6.437.969v42.531a69.38 69.38 0 0 0 6.438.984 64.61 64.61 0 0 0 6.453.313c8.594 0 12.891-5.367 12.891-16.109zm25.782-48.343l12.891-3.219v93.453h-12.891zm25.781 51.562c0-21.488 9.664-32.234 29-32.234s29 10.746 29 32.234v6.438c0 21.492-9.668 32.234-29 32.234s-29-10.742-29-32.234zm12.891 6.438c0 12.898 5.367 19.344 16.109 19.344s16.109-6.445 16.109-19.344v-6.437c0-12.895-5.371-19.344-16.109-19.344s-16.109 6.449-16.109 19.344zm0 0" />
    <use href="#G" />
    <use href="#F" x="339.023" />
    <use href="#G" x="106.992" />
  </g>
  <g clip-path="url(#A)">
    <path fill="#ffcc53"
      d="M170.094 122.285l29.086 16.781h.031l3.445 2.004-11.02 6.355h-.031l-28.715 16.594v12.273l39.359-22.73 11.02-6.355 15.031 8.672 2.785 1.598v20.508l-11.082 6.387-39.016 22.547 10.648 6.137 31.152-18.004 8.297-4.793v40.797l-2.785 1.598-12.84 7.422v-.531l-6.137-3.539-4.445-2.566 15.125-8.738v-15.309l-17.348 10.02.063.031-11.082 6.355-11.055-6.387-10.613-6.137-5.543-3.195-5.512-3.16 61.09-35.289v-7.797l-6.734-3.883-61.43 35.477v-37.762l28.773-16.594-13.273-7.672-26.363 15.219h.031l-2.223 1.281v60.68l55.199 31.875 8.672 5.012-3.445 2.004h-.031l-29.086 16.781-2.754 1.598-2.758-1.598-58.234-33.598-2.758-1.598v-73.578l2.758-1.598 8.297-4.789v73.609l52.695 30.434 13.242-7.668-50.535-29.184-2.316-1.344v-73.395l7.734-4.477h.031l29.086-16.781 2.758-1.598zm0 0"
      fill-rule="evenodd" />
  </g>
  <g clip-path="url(#B)">
    <g clip-path="url(#C)">
      <g clip-path="url(#D)">
        <path fill="#ffcc53"
          d="M151.883 199.82l.102-33.578-.016-.027.027-3.984 10.992 6.402.016.027 28.672 16.66 10.652-6.102-39.289-22.848-10.996-6.402.055-17.352v-3.211l17.793-10.195 11.055 6.441 38.953 22.641.031-12.285-31.105-18.082-8.281-4.816 35.398-20.285 2.77 1.625 12.82 7.449-.461.266-.02 7.082-.02 5.137-15.098-8.781-13.281 7.613 17.316 10.07-.004-.07 11.023 6.457-.047 12.766-.047 12.262-.016 6.395-.008 6.355-60.984-35.461-6.766 3.875-.02 7.77 61.32 35.668-32.766 18.77-28.703-16.715-.055 15.332 26.309 15.309-.016-.027 2.219 1.293 52.648-30.168.215-63.742.035-10.016 3.453 1.992.016.027 29.02 16.898 2.758 1.594-.02 3.188-.195 67.23-.016 3.184-63.844 36.582-2.758-1.598-8.281-4.82 63.871-36.594.211-60.852-13.242-7.676-.195 58.352-.016 2.68-63.68 36.488-7.73-4.484-.016-.027-29.023-16.898-2.754-1.594zm0 0"
          fill-rule="evenodd" />
      </g>
    </g>
  </g>
</svg>