<?xml version="1.0" encoding="UTF-8"?>
<svg xmlns="http://www.w3.org/2000/svg" viewBox="3 3 25 25">
  <defs>
    <style>
      .cls-1 {
        fill: #ed1c24;
      }

      .cls-1,
      .cls-2,
      .cls-3 {
        stroke-width: 0px;
      }

      .cls-2 {
        fill: blue;
      }
    </style>
  </defs>
  <g>
    <path class="cls-2"
      d="m15.49,15.75c.13-.05.21.02.29.09.5.44,1.01.87,1.51,1.31.47.41.97.78,1.4,1.23.61.63,1.02,1.38,1.17,2.25.05.25.07.5.09.78-.13-.08-.15-.19-.15-.29-.01-.42-.12-.83-.28-1.21-.19-.44-.41-.87-.74-1.23-.44-.48-.92-.9-1.42-1.3-.28-.22-.54-.47-.81-.71-.35-.31-.71-.61-1.07-.92Z" />
    <path class="cls-1"
      d="m11.95,13.55c-.22-.06-.39-.2-.54-.36-.17-.17-.38-.31-.56-.47-.22-.2-.45-.38-.64-.6-.29-.33-.54-.69-.73-1.09-.17-.35-.3-.71-.38-1.09-.08-.37-.06-.74-.08-1.11-.01-.36.07-.7.16-1.04.01-.05.01-.12.08-.1.07.02.05.08.04.14-.12.44-.2.89-.17,1.35.03.58.17,1.13.41,1.67.39.87,1.04,1.5,1.76,2.09.21.17.41.35.61.53.02.02.05.04.03.09Z" />
    <path class="cls-2"
      d="m19.2,20.63c-.16-.08-.18-.25-.23-.38-.15-.44-.38-.82-.66-1.18-.2-.26-.45-.49-.69-.71-.37-.35-.76-.68-1.16-1-.4-.33-.79-.68-1.19-1.02-.23-.19-.46-.39-.7-.6.12-.03.2,0,.28.07.39.35.79.68,1.18,1.02.31.27.63.54.95.81.63.53,1.28,1.03,1.72,1.75.22.36.39.73.51,1.14,0,.03.02.07,0,.1Z" />
    <path class="cls-2"
      d="m20.39,20.8c-.07-.56-.2-1.11-.48-1.6-.17-.3-.35-.6-.59-.86-.6-.65-1.31-1.17-1.97-1.76-.25-.23-.52-.44-.79-.7.12.03.23.03.32.11.7.6,1.41,1.2,2.1,1.81.65.58,1.11,1.29,1.37,2.12.09.28.12.58.17.87-.04,0-.09,0-.13,0Z" />
    <path class="cls-1"
      d="m11.68,12.65c-.24-.25-.54-.44-.78-.7-.36-.4-.66-.83-.89-1.31-.16-.34-.26-.7-.34-1.07-.08-.34-.05-.69-.05-1.03,0-.11.01-.22.02-.33,0-.04,0-.1.04-.1.05,0,.08.05.09.11,0,.11-.03.22-.03.34-.01.48,0,.96.16,1.41.15.43.32.86.6,1.24.21.3.43.59.69.84.19.18.41.33.59.51-.05.02-.08.05-.08.1Z" />
    <path class="cls-1"
      d="m12.32,10.68c1.31,1.19,2.68,2.32,4.03,3.47-.13.06-.13.05-.22-.02-.47-.39-.92-.8-1.4-1.18-.4-.33-.78-.68-1.18-1.01-.23-.19-.46-.38-.69-.57-.21-.18-.39-.4-.56-.61,0,0,0-.02,0-.04,0,0,.02-.02.03-.03Z" />
    <path class="cls-1"
      d="m11.82,10.92c.26.31.55.59.87.85.45.37.89.76,1.33,1.15.31.27.64.53.95.82.17.16.37.29.52.47.02.02.08.04.03.08-.04.03-.07.02-.11,0-.26-.22-.51-.43-.77-.65-.4-.34-.81-.68-1.21-1.03-.34-.3-.7-.59-1.03-.9-.2-.19-.41-.35-.58-.57-.02-.02-.04-.05-.04-.08.02-.04.03-.08.05-.12Z" />
    <path class="cls-2"
      d="m17.77,19.24c-.12-.06-.22-.14-.31-.23-.2-.2-.41-.38-.64-.55-.17-.13-.33-.29-.49-.43-.29-.25-.59-.5-.88-.76-.36-.32-.73-.63-1.09-.95-.18-.16-.36-.31-.55-.47.1-.02.16-.01.22.05.65.56,1.31,1.12,1.96,1.68.56.48,1.14.93,1.65,1.46.05.06.11.11.15.18l-.02.03Z" />
    <path class="cls-2"
      d="m20.79,19.63c-.19-.49-.4-.96-.74-1.37-.31-.39-.66-.74-1.05-1.05-.25-.2-.47-.43-.73-.63-.04-.03-.13-.03-.12-.14.16.06.3.13.43.24.16.14.31.29.48.42.31.24.59.51.85.79.45.49.79,1.05.99,1.7-.04.01-.08.03-.11.04Z" />
    <path class="cls-1"
      d="m14.09,11.61c.13-.04.21.02.28.08.77.63,1.53,1.28,2.27,1.94.1.09.21.17.31.25.04.03.11.07.07.12-.05.06-.11.01-.16-.03-.11-.09-.22-.18-.32-.27-.54-.46-1.07-.93-1.61-1.39-.27-.23-.54-.46-.84-.7Z" />
    <path class="cls-1"
      d="m11.9,11.9c.37.27.68.6,1.04.88.35.27.65.59,1.01.85.24.17.43.41.67.59.02.01.05.03.03.06-.02.03-.05.02-.08.01-.19-.03-.27-.2-.41-.3-.24-.16-.44-.37-.65-.56-.25-.22-.53-.4-.76-.64-.16-.16-.37-.27-.51-.45-.1-.12-.25-.21-.38-.32.01-.04.02-.09.04-.13Z" />
    <path class="cls-1"
      d="m11.9,11.9s-.02.09-.04.13c-.48-.43-.89-.91-1.18-1.49-.29-.55-.45-1.13-.49-1.74,0-.05-.03-.13.05-.14.06,0,.08.07.08.13.03.82.34,1.55.79,2.22.22.33.51.61.79.89Z" />
    <path class="cls-2"
      d="m21.73,20.74c-.02.65-.15,1.26-.41,1.84-.02.04-.01.12-.09.1-.07-.02-.05-.09-.02-.14.15-.34.27-.69.32-1.06.04-.29.11-.58.06-.88-.03-.21-.01-.44-.07-.65-.07-.24-.09-.5-.19-.73-.01-.03-.05-.05,0-.07.03-.01.06,0,.08.03.11.1.12.24.15.36.11.41.16.82.17,1.22Z" />
    <path class="cls-2"
      d="m16.09,18.43c-.17.02-.27-.03-.37-.13-.24-.26-.52-.46-.78-.69-.28-.25-.57-.49-.85-.73-.33-.28-.66-.56-1-.85.09-.09.15-.03.22.03.35.3.7.6,1.05.9.53.45,1.06.91,1.59,1.36.04.03.07.07.14.13Z" />
    <path class="cls-1"
      d="m8.86,10.95c-.23-.18-.27-.4-.32-.63-.04-.2-.07-.4-.09-.6-.03-.28-.02-.56,0-.83.02-.5.16-.96.36-1.42.02-.05.03-.17.12-.14.11.04.04.13,0,.19-.27.59-.39,1.21-.37,1.86.02.51.09,1,.29,1.47,0,.02,0,.05.01.1Z" />
    <path class="cls-1"
      d="m15.12,11.67c.09-.03.15,0,.22.05.5.44,1.01.86,1.5,1.3.25.22.52.44.78.66.03.02.09.04.05.08-.03.05-.09.05-.13,0-.02-.01-.03-.03-.05-.04-.77-.66-1.54-1.32-2.31-1.98-.03-.02-.07-.04-.07-.08Z" />
    <path class="cls-1"
      d="m15.92,11.6c.08-.06.14-.05.21.01.52.45,1.04.9,1.56,1.35.16.14.33.27.5.41.04.03.13.07.08.13-.05.05-.11,0-.16-.04-.46-.39-.92-.79-1.38-1.18-.27-.23-.53-.46-.8-.69Z" />
    <path class="cls-1"
      d="m7.99,10.07c-.09-.07-.13-.15-.13-.28,0-.42,0-.83.09-1.24.12-.52.33-1.01.6-1.47.02-.04.05-.07.1-.04.07.04.03.08,0,.13-.17.32-.34.65-.46.99-.1.28-.18.58-.2.87-.02.34-.04.69,0,1.03,0,0,0,0-.02,0Z" />
    <path class="cls-2"
      d="m12.54,16.2s.07.03.11.06c.76.65,1.52,1.3,2.28,1.96.04.03.11.06.07.11-.04.04-.12.03-.17-.02-.23-.24-.49-.44-.74-.65-.38-.32-.74-.67-1.14-.96-.16-.12-.3-.25-.44-.38-.02-.02-.05-.04-.04-.08.01-.03.04-.04.08-.04Z" />
    <path class="cls-2"
      d="m22.29,20.59c-.04.81-.25,1.57-.67,2.27-.01.02-.02.05-.04.07-.03.03-.05.08-.1.04-.04-.03-.04-.07-.01-.11.08-.15.16-.29.24-.45.2-.41.34-.84.4-1.3.03-.26.06-.52.06-.78,0-.09-.04-.18-.03-.27,0-.03-.02-.08.03-.09.05,0,.08.04.08.08.01.12,0,.23.04.35.02.06-.01.13,0,.19Z" />
    <path class="cls-1"
      d="m16.69,11.35s.07.04.1.07c.36.33.73.63,1.1.95.28.25.57.49.86.73.03.03.11.04.06.11-.04.05-.09.02-.13-.01-.68-.58-1.36-1.16-2.04-1.74-.02-.02-.05-.03-.03-.06.02-.02.05-.03.08-.05Z" />
    <path class="cls-1"
      d="m17.19,11.15c.07-.07.12-.05.18,0,.63.54,1.26,1.08,1.89,1.62.03.02.09.04.04.09-.04.05-.08.03-.13,0-.29-.25-.58-.5-.87-.75-.33-.29-.67-.57-1-.86-.04-.03-.07-.07-.11-.1Z" />
    <path class="cls-1"
      d="m5.04,7.06s-.04-.03-.06-.05c-.02-.02-.01-.05,0-.07.03-.02.05-.05.08-.07.58-.5,1.16-.99,1.75-1.49.02-.02.05-.04.07-.06.04-.03.07,0,.09.02.03.03.02.05-.01.08-.02.02-.04.03-.06.05-.59.51-1.18,1.01-1.77,1.51-.03.03-.06.05-.1.08Z" />
    <path class="cls-1"
      d="m21.05,11.18s-.04.09-.1.05c-.02-.01-.04-.03-.06-.05-.59-.51-1.19-1.02-1.78-1.53-.03-.03-.12-.05-.06-.13.07-.08.11,0,.15.04.59.51,1.19,1.01,1.78,1.52.03.03.07.05.08.09Z" />
    <path class="cls-1"
      d="m21.98,6.55s.08.04.11.07c.25.23.52.43.77.66.31.29.65.55.97.83.03.03.06.05.09.08.02.02.05.05.02.08-.03.02-.04.05-.1.03-.12-.06-.2-.17-.3-.25-.26-.21-.5-.44-.76-.66-.25-.21-.5-.42-.75-.62-.03-.03-.06-.06-.09-.09-.02-.02-.05-.03-.02-.06.02-.02.04-.04.07-.06Z" />
    <path class="cls-2"
      d="m22.71,20.54c.12.04.15.1.13.18-.09.64-.25,1.25-.59,1.8-.13.21-.25.43-.41.63-.03.04-.06.11-.12.06-.06-.05-.02-.1.01-.15.47-.57.76-1.23.9-1.95.04-.18.12-.36.06-.57Z" />
    <path class="cls-1"
      d="m21.88,10.34s-.05.1-.11.06c-.03-.02-.06-.04-.08-.07-.53-.45-1.06-.9-1.6-1.36-.08-.07-.17-.12-.23-.2-.03-.04-.03-.07,0-.11.04-.04.06,0,.09.02.61.52,1.22,1.05,1.83,1.57.03.03.06.06.09.08Z" />
    <path class="cls-1"
      d="m6.34,4.71c-.06-.06-.1.02-.14.05-.31.26-.61.53-.92.79-.01.01-.03.03-.04.05-.03.06-.1.1-.15.13,0,0-.01,0-.02.01,0,0-.01,0-.02.01,0,0,0,0-.01.01,0,0,0,0,0,0,0,0-.02.01-.03.02,0,0,0,0,0,0-.02.01-.04.03-.06.05-.02.01-.03.03-.04.04-.01.01-.02.03-.04.04-.01.01-.02.02-.03.03,0,.01-.02.01-.03,0,0,0,0,0-.01,0-.01,0-.02.02-.04.03-.03.04-.06.08-.09.12-.04.04-.09.09-.15.12-.02.04-.09.05-.11.09-.02.03-.06.05-.02.09.03.03.06.04.09.01.02-.02.04-.03.06-.05.59-.5,1.17-1.01,1.76-1.51.04-.04.13-.07.06-.14Z" />
    <path class="cls-1"
      d="m19.5,9.08s.06.04.09.07c.6.51,1.2,1.03,1.8,1.54.03.03.11.05.05.12-.05.06-.09,0-.13-.02-.6-.52-1.21-1.04-1.81-1.56-.03-.02-.08-.04-.05-.1.01-.02.04-.03.06-.06Z" />
    <path class="cls-1"
      d="m7.28,9.22c.06-.27.1-.54.18-.8.17-.58.46-1.1.83-1.57.03-.03.04-.11.12-.05.07.05.01.09-.02.13-.29.38-.52.79-.7,1.23-.14.35-.23.72-.27,1.1,0,.06,0,.17-.06.16-.11,0-.06-.12-.08-.19Z" />
    <path class="cls-1"
      d="m22.79,5.72c.07,0,.08.03.11.05.47.41.94.82,1.42,1.22.13.11.24.24.38.34.03.02.1.05.05.11-.04.06-.1.04-.15,0-.1-.08-.2-.17-.3-.26-.24-.23-.5-.43-.75-.65-.25-.22-.51-.42-.74-.66-.02-.02-.06-.04-.05-.09,0-.02.02-.05.03-.05Z" />
    <path class="cls-1"
      d="m5.2,7.21s-.05-.02-.07-.04c-.03-.04,0-.07.03-.09.11-.09.21-.18.32-.27.49-.42.98-.84,1.47-1.26.02-.02.04-.03.06-.05.04-.04.07-.06.11,0,.04.05,0,.07-.03.1-.13.11-.26.22-.39.33-.47.4-.94.81-1.41,1.21-.03.03-.06.05-.09.07Z" />
    <path class="cls-1"
      d="m6.52,4.91s-.04.06-.06.08c-.6.51-1.2,1.03-1.8,1.54-.04.03-.07.09-.13.02-.06-.07.02-.09.05-.12.6-.52,1.2-1.03,1.8-1.54.03-.02.05-.07.1-.05.02.01.04.03.04.06Z" />
    <path class="cls-1"
      d="m22.4,6.14s.05.04.07.06c.13.14.3.24.44.36.45.41.93.8,1.39,1.2.03.02.08.04.03.09-.04.04-.08.05-.12.01-.08-.07-.16-.14-.24-.21-.4-.34-.8-.7-1.2-1.04-.13-.12-.27-.23-.41-.34-.02-.02-.06-.04-.03-.08.02-.02.05-.04.07-.06Z" />
    <path class="cls-2"
      d="m14.22,18.39c-.06.05-.11.06-.18,0-.39-.34-.78-.67-1.18-1.01-.31-.26-.62-.52-.93-.78-.04-.03-.11-.04-.08-.1.04-.06.1-.04.16,0,.24.21.48.41.72.62.49.42.99.85,1.48,1.27Z" />
    <path class="cls-1"
      d="m4.73,6.76s-.04-.03-.06-.05c-.02-.03,0-.05.02-.06.02-.02.04-.03.06-.05.59-.51,1.18-1.01,1.77-1.51.04-.03.08-.12.14-.05.07.07-.02.11-.06.14-.59.51-1.18,1.01-1.77,1.52-.03.02-.06.04-.09.07Z" />
    <path class="cls-1"
      d="m25.62,6.55c-.05.1-.1.11-.2.03-.34-.3-.69-.58-1.03-.89-.26-.24-.55-.44-.77-.73-.02-.03-.05-.05-.01-.09.03-.03.07-.03.1,0,.03.03.06.06.09.09.54.56,1.17,1.02,1.74,1.55.02.02.05.03.08.05Z" />
    <path class="cls-2"
      d="m6.29,21.68s.05.04.08.07c.27.24.53.48.81.7.23.18.44.38.67.57.11.09.22.19.33.29.03.02.08.04.04.1-.04.05-.08.05-.13,0-.24-.22-.49-.43-.74-.64-.25-.22-.51-.43-.76-.64-.12-.1-.23-.2-.34-.31-.02-.02-.06-.05-.02-.09.02-.02.03-.04.07-.04Z" />
    <path class="cls-2"
      d="m5.45,22.52s.09.08.13.12c.57.49,1.15.99,1.72,1.49.03.03.14.06.06.14-.07.06-.11-.01-.15-.05-.41-.35-.81-.69-1.22-1.04-.19-.17-.38-.33-.57-.5-.03-.02-.07-.06-.03-.1.02-.02.04-.03.06-.05Z" />
    <path class="cls-2"
      d="m10.88,17.1s.07.03.1.06c.49.42.98.84,1.47,1.26.14.12.28.24.42.36.03.02.08.04.05.09-.03.04-.08.04-.13,0-.11-.09-.22-.16-.32-.26-.18-.19-.4-.33-.59-.51-.26-.25-.58-.44-.82-.72-.06-.07-.14-.12-.22-.17-.02-.02-.05-.04-.04-.08.01-.02.03-.04.06-.04Z" />
    <path class="cls-1"
      d="m7.63,6.02s-.08.06-.11.09c-.3.26-.61.52-.91.78-.29.25-.58.5-.83.8-.03.03-.05.09-.11.04-.06-.05-.02-.09.02-.13.15-.16.29-.32.46-.47.43-.38.87-.75,1.3-1.12.04-.03.07-.09.13-.05.02.01.03.03.06.07Z" />
    <path class="cls-2"
      d="m11.96,19.56s0,.06-.03.08c-.04.02-.07,0-.1-.02-.17-.15-.33-.3-.5-.45-.25-.21-.51-.42-.76-.63-.21-.18-.41-.37-.62-.54-.04-.03-.02-.05,0-.07.04-.05.07-.04.11,0,.15.13.3.26.45.38.46.39.92.79,1.38,1.18.03.03.07.05.08.08Z" />
    <path class="cls-1"
      d="m6.84,5.2s-.03.06-.05.08c-.61.52-1.22,1.05-1.83,1.57-.04.03-.08.08-.13.02-.05-.06.02-.08.05-.11.6-.52,1.21-1.04,1.82-1.56.03-.02.05-.07.1-.04.02.01.03.03.04.04Z" />
    <path class="cls-1"
      d="m18.25,10.34s.06.05.09.07c.6.51,1.2,1.03,1.8,1.54.03.03.11.05.04.12-.06.06-.09,0-.13-.03-.6-.51-1.2-1.03-1.8-1.54-.03-.03-.09-.04-.06-.11,0-.02.04-.03.06-.05Z" />
    <path class="cls-1"
      d="m6.22,4.58c-.04-.05-.08-.03-.11,0-.02.02-.04.03-.06.05-.45.38-.9.77-1.34,1.15-.15.13-.3.26-.45.38-.03.03-.06.05-.02.1.04.06.07,0,.1,0,.05-.02.07-.08.12-.1.03-.03.06-.05.09-.08.07-.08.13-.15.22-.21,0,0,.01,0,.02,0,.01-.02.03-.03.04-.04.03-.02.06-.04.09-.06,0,0,.01-.01.02-.02.01-.01.03-.02.04-.03.03-.04.06-.07.11-.09.03-.03.06-.07.1-.09.01-.02.03-.03.04-.04,0,0,0,0,0,0,0,0,0-.01,0-.02s.01,0,.02,0h.01s.04-.02.05-.04c.29-.25.58-.5.87-.75.03-.02.08-.04.04-.1Z" />
    <path class="cls-2"
      d="m11.31,16.82c.07-.07.13-.05.19,0,.63.55,1.27,1.09,1.91,1.64.02.01.03.03.05.04.04.03.12.05.08.1-.04.05-.12.04-.17,0-.16-.14-.33-.27-.48-.42-.33-.32-.69-.61-1.03-.91-.17-.15-.35-.3-.53-.45Z" />
    <path class="cls-2"
      d="m5.85,22.11c.05,0,.08.03.11.06.55.47,1.1.94,1.65,1.42.05.05.11.09.17.14.03.02.08.05.03.1-.04.05-.08.03-.12,0-.19-.17-.39-.33-.58-.5-.25-.22-.52-.41-.76-.63-.18-.16-.37-.3-.53-.47-.02-.02-.05-.04-.03-.08.02-.02.03-.04.06-.04Z" />
    <path class="cls-2"
      d="m20.79,19.63s.08-.03.11-.04c.17.6.27,1.2.2,1.82-.03.28-.1.56-.17.83,0,.03,0,.1-.06.08-.04-.01-.06-.06-.05-.1.03-.17.07-.35.1-.52.08-.47.08-.93,0-1.41-.04-.22-.1-.43-.13-.66Z" />
    <path class="cls-1"
      d="m5.34,7.37s-.1-.05-.05-.11c.02-.03.05-.05.08-.07.59-.5,1.17-1,1.76-1.51.03-.02.05-.05.09-.07.04-.02.06.02.07.04.03.05-.03.07-.05.1-.39.33-.78.67-1.17,1-.21.18-.42.36-.63.54-.03.03-.06.05-.1.08Z" />
    <path class="cls-2"
      d="m4.61,23.35s.05.03.07.05c.59.53,1.22,1,1.77,1.57.03.03.05.05.07.08.03.04,0,.07-.03.09-.03.02-.06.02-.08-.01-.23-.28-.51-.5-.78-.74-.26-.22-.52-.44-.78-.66-.09-.08-.18-.17-.27-.26-.02-.02-.04-.03-.02-.06.02-.02.04-.03.06-.05Z" />
    <path class="cls-1"
      d="m19.8,12.43s-.04.05-.05.06c-.03.03-.06.01-.08,0-.06-.05-.13-.11-.19-.16-.56-.48-1.12-.96-1.67-1.44-.03-.03-.12-.04-.07-.11.06-.08.11-.01.15.03.46.41.94.79,1.39,1.21.14.13.29.25.44.36.02.02.05.04.08.06Z" />
    <path class="cls-2"
      d="m22.3,23.78s-.04-.04-.06-.06c-.03-.04.01-.04.03-.06.12-.1.23-.2.34-.31.14-.15.33-.25.46-.42.16-.2.34-.38.48-.6.12-.18.26-.35.37-.54.02-.04.04-.04.07-.01.04.03.04.07.01.11-.1.16-.19.32-.3.47-.36.53-.83.96-1.32,1.36-.02.02-.05.03-.09.06Z" />
    <path class="cls-1"
      d="m21.14,7.38s.07.05.09.07c.39.34.79.68,1.18,1.02.21.18.41.35.62.53.03.03.1.05.04.12-.05.06-.09.01-.12-.01-.22-.18-.44-.37-.65-.55-.25-.21-.51-.42-.76-.64-.15-.13-.29-.26-.43-.4-.02-.02-.04-.03-.02-.06.02-.02.03-.04.04-.07Z" />
    <path class="cls-1"
      d="m5.51,7.54s-.05-.03-.06-.05c-.03-.04,0-.06.03-.08.08-.07.16-.15.24-.22.53-.46,1.06-.91,1.59-1.37.04-.04.09-.06.13,0,.06.07-.03.07-.06.09-.57.56-1.21,1.04-1.8,1.58-.02.02-.05.04-.07.06Z" />
    <path class="cls-1"
      d="m20.64,11.6s-.05.09-.1.07c-.03-.01-.05-.04-.07-.06-.6-.51-1.19-1.02-1.79-1.53,0,0,0,0-.01-.01-.02-.04-.11-.05-.04-.12.06-.06.09,0,.12.03.14.11.27.23.4.34.34.29.69.59,1.03.88.13.11.26.22.39.33.02.02.05.04.07.06Z" />
    <path class="cls-2"
      d="m7.94,20s.06.04.08.06c.18.16.35.32.53.47.25.2.49.43.75.62.1.08.2.16.32.24.09.06.17.18.26.26.03.03,0,.05-.01.08-.03.04-.06.02-.09,0-.13-.1-.26-.2-.38-.31-.35-.29-.69-.59-1.03-.88-.16-.14-.32-.27-.47-.41-.02-.02-.03-.04-.04-.06.03-.02.06-.04.09-.07Z" />
    <path class="cls-2"
      d="m11.55,19.99s-.03.06-.06.08c-.03.03-.06,0-.08-.01-.24-.2-.48-.4-.71-.61-.33-.3-.68-.58-1.02-.87-.06-.05-.19-.13-.13-.21.08-.1.14.05.2.09.58.49,1.16.99,1.74,1.49.02.02.04.03.05.05Z" />
    <path class="cls-1"
      d="m20.74,7.8c.2.17.4.34.59.51.26.23.53.45.79.68.16.14.31.28.48.41.02.02.04.05.06.07.02.02.04.04,0,.08-.03.03-.05.04-.09,0-.25-.21-.5-.41-.74-.62-.32-.27-.63-.54-.95-.81-.05-.05-.11-.1-.16-.14-.08-.07-.07-.12.02-.16Z" />
    <path class="cls-1"
      d="m6.04,4.49c-.45.38-.88.76-1.32,1.13-.18.15-.36.3-.53.45-.05.04-.1.07-.14.01-.05-.06.03-.07.06-.1.55-.48,1.11-.95,1.66-1.43.08-.07.15-.11.27-.07Z" />
    <path class="cls-1"
      d="m6.91,8.95c-.08-.03-.08-.09-.07-.15.07-.28.19-.54.3-.8.23-.51.54-.97.94-1.36.03-.03.05-.11.12-.05.07.06,0,.1-.03.13-.53.56-.93,1.2-1.16,1.94-.02.08-.04.16-.06.23,0,.02-.03.04-.04.06Z" />
    <path class="cls-2"
      d="m6.08,25.51c-.16.06-.22-.05-.27-.13-.21-.28-.51-.47-.76-.7-.17-.15-.35-.3-.52-.45-.11-.1-.23-.21-.34-.31-.03-.03-.09-.05-.03-.11.05-.05.08-.02.12.02.51.46,1.06.87,1.54,1.35.1.1.18.21.27.33Z" />
    <path class="cls-1"
      d="m6.54,8.58c-.08-.04-.09-.09-.06-.16.22-.51.51-.97.86-1.39.17-.21.38-.39.58-.58.04-.03.07-.08.13-.02.05.06-.01.08-.04.11-.64.54-1.12,1.21-1.44,1.99,0,.02-.02.03-.03.05Z" />
    <path class="cls-2"
      d="m23.2,21.02c.1.04.12.08.09.17-.19.74-.54,1.4-1.05,1.97-.06.07-.12.14-.18.2-.03.03-.03.09-.09.04-.05-.05-.03-.09.02-.13.16-.14.27-.32.4-.49.32-.42.56-.88.72-1.39.04-.12.09-.23.1-.37Z" />
    <path class="cls-2"
      d="m10.74,20.85s-.04.03-.06.04c-.04.03-.05,0-.07-.02-.27-.23-.55-.46-.82-.7-.17-.15-.34-.28-.51-.42-.17-.14-.31-.3-.5-.43-.04-.03-.11-.08-.05-.15.07-.08.12.01.15.04.2.19.42.36.62.54.37.32.75.64,1.13.97.04.03.09.06.11.12Z" />
    <path class="cls-2"
      d="m9,22.6c-.09-.07-.19-.13-.27-.2-.28-.25-.57-.49-.86-.73-.25-.21-.49-.43-.74-.64-.02-.02-.04-.04-.05-.06-.02-.02-.04-.05,0-.08.03-.03.05-.02.08,0,.17.14.35.28.53.43.16.14.32.27.48.41.29.25.57.5.87.75.02.02.06.03.04.07-.01.02-.04.04-.06.06Z" />
    <path class="cls-1"
      d="m25.21,6.98s-.03.04-.05.06c-.04.03-.07-.01-.09-.03-.19-.16-.38-.31-.56-.47-.26-.24-.54-.46-.82-.69-.16-.13-.31-.28-.46-.43-.03-.03-.09-.06-.03-.11.05-.04.08-.02.12.02.24.25.51.48.79.69.13.09.2.27.38.28.18.26.46.42.68.63.01.01.03.03.04.05Z" />
    <path class="cls-1"
      d="m22.3,9.92s-.05.09-.1.08c-.02,0-.04-.03-.06-.05-.49-.42-.98-.84-1.47-1.25-.12-.11-.27-.19-.37-.32-.03-.03-.06-.06-.02-.1.04-.04.07-.03.1,0,.23.2.46.4.7.6.36.31.73.62,1.09.93.04.04.09.07.13.1Z" />
    <path class="cls-1"
      d="m23.53,8.66c-.03.06-.05.09-.12.06-.12-.05-.2-.16-.3-.24-.26-.21-.51-.44-.76-.66-.25-.21-.5-.42-.75-.63-.02-.02-.04-.03-.06-.05-.03-.04-.11-.06-.04-.12.05-.05.09,0,.13.03.6.51,1.2,1.02,1.8,1.54.03.03.06.06.09.08Z" />
    <path class="cls-2"
      d="m5.04,22.95s.03.03.06.05c.43.37.86.75,1.3,1.11.18.15.34.31.51.46.04.03.09.07.02.13-.06.05-.08-.02-.11-.04-.38-.34-.76-.68-1.16-1-.23-.18-.45-.38-.67-.57-.02-.02-.07-.04-.05-.09.01-.03.04-.05.09-.04Z" />
    <path class="cls-1"
      d="m24.08,4.49c.14-.06.2.06.26.13.13.16.28.29.43.42.22.2.45.39.67.59.17.15.35.3.52.45.03.03.09.04.05.11-.05.06-.1.02-.13,0-.08-.06-.16-.13-.23-.2-.33-.29-.64-.58-.98-.86-.22-.18-.43-.37-.58-.63Z" />
    <path class="cls-1"
      d="m6.19,8.23c-.07-.04-.07-.08-.04-.15.19-.33.41-.64.66-.92.29-.32.61-.6.94-.88.03-.03.07-.09.13-.03.05.07-.02.09-.05.12-.54.44-1.04.92-1.41,1.51-.06.09-.11.19-.17.28-.02.03-.02.06-.06.07Z" />
    <path class="cls-2"
      d="m9.18,18.74s.05.04.08.06c.61.52,1.21,1.04,1.82,1.56.03.03.1.04.05.1-.04.04-.09.04-.14,0-.45-.43-.94-.81-1.4-1.22-.14-.12-.31-.22-.43-.37-.02-.02-.06-.04-.04-.07.01-.02.04-.03.06-.05Z" />
    <path class="cls-2"
      d="m6.68,21.26c.08.03.16.07.2.11.22.27.51.45.76.68.26.24.53.45.8.68.06.05.12.1.18.15.03.02.07.04.02.08-.03.02-.05.06-.1.01-.1-.1-.22-.18-.33-.27-.41-.36-.81-.72-1.23-1.07-.1-.09-.2-.18-.31-.27-.02-.02-.06-.03-.03-.07.01-.01.03-.02.05-.03Z" />
    <path class="cls-2"
      d="m23.69,21.54c-.04.09-.08.19-.13.29-.19.38-.42.72-.68,1.05-.19.23-.41.42-.61.64-.02.02-.05.03-.07.05-.04.03-.07.04-.1,0-.03-.05,0-.07.04-.09.1-.07.18-.16.26-.24.48-.48.87-1.02,1.13-1.65.02-.04.04-.07.06-.1.02-.02.01-.09.07-.06.03.02.06.05.05.11Z" />
    <path class="cls-1"
      d="m5.91,7.98c-.07-.06-.03-.11.01-.17.29-.41.65-.77,1.03-1.09.21-.18.41-.36.63-.53.04-.04.09-.16.16-.05.06.08-.05.11-.1.14-.31.27-.62.54-.93.81-.26.23-.48.49-.68.77-.04.05-.07.11-.13.13Z" />
    <path class="cls-2"
      d="m12.47,19.22s-.05.01-.07.02c-.05.03-.08,0-.11-.03-.17-.14-.34-.28-.51-.42-.44-.38-.87-.76-1.31-1.14-.04-.03-.14-.06-.08-.13.06-.08.11.01.15.04.6.51,1.2,1.03,1.8,1.54.03.03.06.05.12.11Z" />
    <path class="cls-2"
      d="m7.5,20.43c.05,0,.08.04.11.06.48.41.96.83,1.45,1.24.1.08.17.21.32.23.03,0,.06.09.08.14,0,.01-.02.05-.04.06-.05.02-.07-.02-.1-.05-.62-.53-1.23-1.06-1.85-1.59-.02-.02-.05-.02-.03-.06.01-.03.04-.05.07-.04Z" />
    <path class="cls-2"
      d="m8.33,19.59c.06,0,.09.03.12.06.6.51,1.19,1.02,1.78,1.53.03.03.11.05.06.12-.06.07-.1,0-.14-.03-.61-.52-1.23-1.05-1.84-1.58-.02-.02-.05-.02-.04-.05.01-.03.04-.05.06-.05Z" />
    <path class="cls-2"
      d="m24.73,22.53s-.07.08-.11.11c-.49.42-.97.84-1.46,1.26-.11.09-.21.18-.32.27-.04.04-.08.07-.13,0-.05-.06.02-.08.05-.11.5-.43,1.01-.86,1.51-1.3.11-.09.21-.2.32-.3.02-.02.04-.05.08-.02.02.02.03.04.06.06Z" />
    <path class="cls-1"
      d="m11.68,12.65c0-.05.04-.08.08-.1.6.51,1.21,1.03,1.83,1.56-.2.02-.32-.08-.43-.17-.26-.21-.5-.45-.76-.66-.24-.21-.49-.41-.73-.62Z" />
    <path class="cls-2"
      d="m22.52,24c.62-.55,1.28-1.05,1.84-1.66.03-.03.05-.13.13-.06.07.06,0,.1-.04.14-.47.54-1.04.96-1.57,1.43-.06.05-.13.1-.19.16-.07.07-.13.07-.17-.01Z" />
    <path class="cls-1"
      d="m5.71,4.48c-.27.23-.52.45-.77.66-.3.26-.6.52-.91.78-.04.04-.08.07-.13.01-.05-.06.02-.08.05-.11.5-.43,1-.86,1.51-1.29.07-.06.14-.07.25-.05Z" />
    <path class="cls-2"
      d="m23.85,25.32s-.07-.04-.09-.06c-.02-.02.02-.04.04-.06.63-.49,1.21-1.03,1.82-1.55.01,0,.02-.02.04-.03.04-.03.08-.08.13-.02.05.06-.02.08-.05.11-.6.52-1.2,1.03-1.81,1.55-.03.02-.06.04-.09.07Z" />
    <path class="cls-2"
      d="m23.2,24.69s-.02-.03-.03-.05c-.02-.05.02-.06.05-.08.2-.17.4-.34.6-.52.4-.36.83-.69,1.22-1.06.04-.04.08-.05.12,0,.05.06,0,.09-.04.11-.24.21-.49.42-.73.63-.35.3-.7.6-1.05.9-.03.03-.06.07-.14.08Z" />
    <path class="cls-2"
      d="m23.55,24.99s-.05-.02-.07-.04c-.02-.03-.01-.05,0-.07.02-.02.04-.03.06-.05.59-.5,1.18-1.01,1.77-1.51.01-.01.02-.02.04-.03.04-.03.08-.06.12-.01.06.06-.01.08-.04.1-.36.31-.72.62-1.08.93-.24.2-.48.41-.72.61-.03.02-.06.05-.08.07Z" />
    <path class="cls-2"
      d="m23.69,25.16s-.04-.03-.06-.05c-.03-.05.02-.06.04-.08.16-.14.33-.28.49-.43.44-.37.87-.75,1.31-1.12,0,0,0,0,.01-.01.04-.03.08-.1.14-.03.05.07-.02.09-.05.12-.28.24-.56.49-.85.73-.3.26-.6.51-.89.77-.04.04-.09.07-.14.11Z" />
    <path class="cls-2"
      d="m22.46,23.91s-.05-.02-.06-.03c-.02-.03,0-.06.02-.08.08-.06.15-.13.22-.19.55-.46,1.1-.93,1.52-1.53.02-.03.04-.09.09-.04.05.05.01.08-.01.12-.28.4-.62.75-.98,1.07-.24.21-.48.41-.72.62-.03.02-.06.04-.08.05Z" />
    <path class="cls-2"
      d="m25.34,23.15c0,.05-.04.07-.07.09-.6.52-1.21,1.04-1.81,1.55-.03.03-.06.08-.12.03-.06-.07,0-.09.04-.12.61-.52,1.21-1.05,1.82-1.57.03-.02.05-.03.08-.02.02,0,.04.03.05.04Z" />
    <path class="cls-2"
      d="m23.99,25.46s-.04-.03-.06-.05c-.03-.05.02-.06.04-.08.23-.2.46-.39.68-.59.38-.32.75-.65,1.13-.97.03-.03.07-.11.14-.04.07.08-.02.1-.05.12-.59.51-1.19,1.02-1.78,1.53-.03.03-.06.05-.1.08Z" />
    <path class="cls-2"
      d="m25.03,22.86s-.07.08-.11.12c-.48.41-.95.82-1.43,1.22-.11.1-.23.2-.34.29-.04.03-.08.08-.13.01-.05-.06.02-.08.05-.11.56-.48,1.12-.96,1.69-1.45.05-.04.08-.09.13-.13.03-.03.06-.03.1-.01.02,0,.03.03.04.05Z" />
    <path class="cls-2"
      d="m24.1,25.52c.64-.55,1.26-1.08,1.88-1.61.04-.03.07-.05.12,0,.04.05,0,.07-.04.1-.57.49-1.15.98-1.72,1.48-.07.06-.14.06-.24.04Z" />
    <path class="cls-2"
      d="m24.87,22.68c-.03.08-.09.12-.14.16-.45.39-.9.78-1.36,1.16-.13.11-.25.22-.38.32-.03.03-.07.07-.12.02-.06-.06,0-.08.04-.11.61-.52,1.22-1.04,1.83-1.57.03-.02.05-.06.09-.04.02,0,.02.03.04.04Z" />
    <path class="cls-1"
      d="m5.36,4.49c-.51.44-1,.86-1.49,1.28-.03.03-.07.07-.12.02-.06-.06.01-.08.04-.11.44-.38.89-.76,1.33-1.14.07-.06.14-.07.24-.04Z" />
    <path class="cls-2"
      d="m24.44,25.52c.47-.4.91-.78,1.36-1.17.11-.09.22-.19.33-.28.04-.03.07-.06.12-.01.05.06,0,.08-.04.11-.51.44-1.01.87-1.52,1.31-.07.06-.14.07-.25.05Z" />
    <path class="cls-1"
      d="m24.9,4.49c.08-.03.14-.02.19.04.4.4.86.73,1.27,1.11.03.03.12.04.06.11-.05.07-.11,0-.15-.02-.16-.12-.3-.26-.46-.39-.19-.16-.39-.33-.58-.49-.12-.11-.23-.23-.34-.36Z" />
    <path class="cls-1"
      d="m5,4.48c-.14,0-.14,0-.27.1-.03.03-.06.08-.1.09-.04.04-.08.08-.13.12-.01.01-.03.02-.04.03-.03.03-.07.05-.1.08-.01.01-.02.02-.04.03-.02.04-.06.06-.09.08-.05.04-.09.08-.14.12-.02.02-.04.04-.06.05-.06.05-.12.11-.18.16,0,0-.02.01-.02.02-.03.02-.05.04-.08.07-.02.02-.05.04-.07.06,0,0,0,0,0,0-.02.04-.13.05-.06.13.06.07.1,0,.14-.04.41-.34.81-.69,1.21-1.04.02-.02.06-.03.04-.07Z" />
    <path class="cls-2"
      d="m5.28,25.52c-.1.01-.16.03-.22-.03-.41-.4-.85-.76-1.28-1.13-.03-.03-.1-.05-.05-.11.03-.04.08-.02.11,0,.48.41.98.8,1.44,1.26Z" />
    <path class="cls-2"
      d="m24.79,25.52c.51-.44,1.01-.87,1.5-1.29.04-.04.08-.05.12,0,.04.06-.01.07-.04.1-.44.38-.89.76-1.33,1.14-.07.06-.14.09-.25.05Z" />
    <path class="cls-1"
      d="m11.82,10.92s-.03.08-.05.12c-.39-.46-.67-.98-.84-1.57,0-.03-.05-.05-.01-.08.04-.03.06,0,.09.03.09.08.09.19.13.29.17.43.39.83.67,1.2Z" />
    <path class="cls-1"
      d="m4.52,4.5c-.35.3-.7.6-1.05.9-.03.03-.04.05,0,.09.03.03.06.02.09,0,.01,0,.02-.02.03-.03.02-.02.03-.04.06-.05.03-.02.05-.04.08-.07,0,0,0,0,.01,0,.02-.03.06-.06.09-.08.04-.04.08-.07.13-.11.03-.03.06-.06.1-.08.04-.03.08-.07.12-.1.03-.04.06-.07.1-.09.04-.03.08-.06.11-.1.03-.04.06-.07.11-.09.03-.02.05-.05.08-.07.03-.05.11-.07.12-.14-.06,0-.12-.02-.17.02Z" />
    <path class="cls-2"
      d="m25.11,25.52c.33-.28.64-.55.95-.81.13-.11.25-.22.38-.32.03-.03.07-.07.12-.02.06.06,0,.08-.03.11-.39.33-.78.67-1.17,1-.07.06-.14.05-.24.04Z" />
    <path class="cls-1"
      d="m25.77,4.49c.1-.03.17,0,.24.05.26.23.53.46.8.69.03.03.08.05.03.09-.03.03-.07.05-.12,0-.23-.21-.47-.4-.7-.61-.08-.07-.18-.11-.24-.23Z" />
    <path class="cls-2"
      d="m25.43,25.52c.33-.28.64-.55.95-.82.07-.06.13-.12.2-.17.04-.03.07-.06.12,0,.04.05,0,.08-.03.1-.34.29-.69.58-1.03.88-.06.05-.12.04-.21.02Z" />
    <path class="cls-1"
      d="m4.38,4.48c-.34.29-.66.56-.98.83-.04.03-.07.04-.1,0-.05-.05,0-.07.03-.1.27-.23.54-.46.81-.7.06-.06.13-.05.23-.04Z" />
    <path class="cls-2"
      d="m4.41,25.51c-.25.07-.35-.13-.48-.24-.21-.16-.4-.35-.6-.52-.03-.02-.09-.02-.04-.08.03-.04.07-.07.12-.02.07.06.14.12.21.18.26.22.52.44.79.68Z" />
    <path class="cls-2"
      d="m25.76,25.52c.35-.3.67-.57.99-.84.03-.03.07-.05.1,0,.04.05,0,.08-.03.1-.28.24-.56.47-.84.72-.06.05-.12.04-.22.03Z" />
    <path class="cls-1"
      d="m4.05,4.47c-.29.25-.55.47-.81.7-.03.03-.06.03-.09,0-.05-.05-.01-.07.02-.1.22-.19.44-.37.66-.56.06-.05.12-.03.22-.03Z" />
    <path class="cls-2"
      d="m20.39,20.8s.09,0,.13,0c-.02.13.03.25.02.37-.02.24,0,.49-.07.73-.06-.03-.09-.07-.08-.13.02-.17-.02-.35.03-.52.04-.14-.03-.29-.02-.44Z" />
    <path class="cls-2"
      d="m26.1,25.52c.28-.24.55-.47.81-.69.03-.03.06-.03.09,0,.04.04,0,.07-.02.09-.23.2-.45.39-.68.58-.05.04-.11.03-.2.01Z" />
    <path class="cls-1"
      d="m3.71,4.48c-.22.19-.42.36-.62.53-.03.03-.06.03-.09,0-.04-.04-.02-.06.01-.09.16-.14.33-.28.49-.42.05-.04.11-.03.2-.02Z" />
    <path class="cls-2"
      d="m26.43,25.53c.2-.17.39-.34.58-.5.04-.03.09-.1.14-.03.05.06-.02.09-.06.12-.14.12-.29.24-.42.36-.07.07-.15.04-.25.05Z" />
    <path class="cls-1"
      d="m26.66,4.49c.16-.08.23.08.33.13.09.05.16.16.25.23.05.04,0,.08-.03.09-.04,0-.08,0-.11-.04-.13-.15-.31-.24-.43-.41Z" />
    <path class="cls-2"
      d="m3.52,25.52c-.13.03-.19-.02-.27-.07-.12-.08-.19-.2-.32-.26-.04-.02-.07-.06-.02-.11.04-.04.07-.02.1.01.16.14.33.28.5.43Z" />
    <path class="cls-1"
      d="m3.36,4.48c-.16.14-.29.25-.43.37-.03.02-.05.04-.08,0-.02-.02-.04-.03-.03-.07.03-.09.39-.32.53-.31Z" />
    <path class="cls-2"
      d="m26.8,25.51c.15-.13.29-.25.43-.37.02-.02.05-.04.08-.01.02.02.02.04.02.07-.03.11-.39.32-.52.31Z" />
    <path class="cls-1"
      d="m3.03,4.49c-.09.08-.17.14-.24.21-.03.03-.06.03-.09,0-.04-.04-.02-.06,0-.09.09-.07.16-.18.33-.12Z" />
    <path class="cls-2"
      d="m27.12,25.51c.08-.07.15-.13.22-.19.04-.03.08-.05.12,0,.05.06-.02.08-.05.1-.08.06-.15.17-.3.1Z" />
    <path class="cls-1" d="m2.7,4.48c-.06.06-.09.12-.16.07-.01-.01-.03-.04-.02-.05.05-.05.1-.02.18-.02Z" />
    <path class="cls-2" d="m17.84,19.28l.02.02s-.02,0-.03,0c0,0,0,0,0,0Z" />
    <path class="cls-2" d="m17.82,19.24s.02.02.03.04c0,0,0,0,0,0-.01,0-.03-.02-.04-.02,0,0,.01-.01.02-.02Z" />
    <path class="cls-2" d="m17.79,19.21s.02.02.03.03c0,0-.01.01-.02.02,0,0-.02-.02-.03-.02,0,0,.01-.02.02-.03Z" />
  </g>
</svg>