<svg xmlns="http://www.w3.org/2000/svg" viewBox="0 0 1065 171">
  <defs>
    <clipPath id="A">
      <path d="M3.098 0h146.891v170H3.098zm0 0" clip-rule="nonzero" />
    </clipPath>
    <clipPath id="B">
      <path d="M115 118h33v20h-33zm0 0" clip-rule="nonzero" />
    </clipPath>
    <clipPath id="C">
      <path d="M121.336 144.055l-6.309-11.012 25.91-14.848 6.309 11.016zm0 0" clip-rule="nonzero" />
    </clipPath>
    <clipPath id="D">
      <path d="M95.27 158.992L22.152 31.379l147.691-84.621 73.117 127.613zm0 0" clip-rule="nonzero" />
    </clipPath>
    <path id="E"
      d="M262.975 49.937c8.031-3.27 16.082-4.906 24.156-4.906 19.832 0 29.75 9.918 29.75 29.75v44.609c-4.961 4.961-14.875 7.438-29.75 7.438-19.824 0-29.734-8.426-29.734-25.281 0-17.844 14.867-26.766 44.609-26.766 0-9.914-4.961-14.875-14.875-14.875-6.637 0-13.25 1.117-19.844 3.344zm39.031 39.719c-19.824 0-29.734 3.965-29.734 11.891 0 6.938 4.953 10.406 14.859 10.406 2.531 0 5.008-.117 7.438-.359a81.53 81.53 0 0 0 7.438-1.125zm0 0" />
    <path id="F"
      d="M554.813 82.219c0-24.789 10.656-37.187 31.969-37.187 20.32 0 30.484 12.398 30.484 37.188 0 7.438-1.242 11.156-3.719 11.156h-43.859c0 12.387 4.953 18.578 14.859 18.578 9.77 0 17.578-1.086 23.422-3.266l2.828 13.75c-5.156 2.93-13.906 4.391-26.25 4.391-19.824 0-29.734-12.391-29.734-37.172zm47.594-2.984c0-12.883-5.211-19.328-15.625-19.328-11.398 0-17.094 6.445-17.094 19.328zm0 0" />
    <path id="G"
      d="M896.841 48.75c5.102-2.477 15.016-3.719 29.734-3.719 3.426 0 6.551.297 9.375.891l-3.344 14.734c-1.637-.5-3.648-.75-6.031-.75a72.82 72.82 0 0 0-7.437.375 84.44 84.44 0 0 0-7.422 1.109v65.438h-14.875zm0 0" />
  </defs>
  <path
    d="M175.607 45.031H192.7l16.359 31.234 16.359-31.234h17.109l-22.312 40.906 22.313 40.891h-17.109L209.06 95.594 192.7 126.828h-17.094l22.313-40.891zm0 0" />
  <use href="#E" />
  <path
    d="M331.751 23.094l14.875-3.703v28.25c4.957-1.488 9.91-2.234 14.859-2.234 19.832 0 29.75 11.156 29.75 33.469v47.953H376.36V78.875c0-12.395-4.961-18.594-14.875-18.594a72.82 72.82 0 0 0-7.437.375 77.7 77.7 0 0 0-7.422 1.109v65.063h-14.875zm0 0" />
  <use href="#E" x="148.708" />
  <path
    d="M480.459 45.031h14.875v52.047c0 9.918 4.953 14.875 14.859 14.875 2.531 0 5.008-.117 7.437-.359a81.53 81.53 0 0 0 7.438-1.125V45.031h14.875v74.359c-4.961 4.961-14.875 7.438-29.75 7.438-19.824 0-29.734-9.914-29.734-29.75zm0 0" />
  <use href="#F" />
  <path
    d="M629.167 45.031h17.094l16.359 31.234 16.359-31.234h17.109l-22.312 40.906 22.313 40.891H678.98l-16.36-31.234-16.359 31.234h-17.094l22.313-40.891zm81.789 3.719c4.957-2.477 14.867-3.719 29.734-3.719 19.832 0 29.75 11.156 29.75 33.469v14.875c0 22.305-9.918 33.453-29.75 33.453-4.949 0-9.902-.742-14.859-2.234v31.984l-14.875 3.703zm44.609 29.75c0-12.395-4.961-18.594-14.875-18.594a72.82 72.82 0 0 0-7.437.375 84.44 84.44 0 0 0-7.422 1.109v49.078a80.4 80.4 0 0 0 7.422 1.125c2.438.242 4.914.359 7.438.359 9.914 0 14.875-6.191 14.875-18.578zm29.745-55.766l14.875-3.719v107.813H785.31zm29.741 59.485c0-24.789 11.148-37.187 33.453-37.187 22.313 0 33.469 12.398 33.469 37.188v7.438c0 24.781-11.156 37.172-33.469 37.172-22.305 0-33.453-12.391-33.453-37.172zm14.875 7.438c0 14.867 6.191 22.297 18.578 22.297 12.395 0 18.594-7.43 18.594-22.297V82.22c0-14.875-6.199-22.312-18.594-22.312-12.387 0-18.578 7.438-18.578 22.313zm0 0" />
  <use href="#G" />
  <use href="#F" x="391.101" />
  <use href="#G" x="123.427" />
  <g clip-path="url(#A)">
    <path fill="#ffcc53"
      d="M79.727 1.855l33.598 19.387h.035l3.977 2.313-12.73 7.34h-.035L71.41 50.063v14.176l45.457-26.254 12.73-7.34 17.355 10.016 3.219 1.844v23.688l-12.801 7.379-45.059 26.035 12.293 7.09 35.984-20.793 9.582-5.535v47.121l-3.219 1.848-14.824 8.57v-.617l-7.09-4.086-5.137-2.965 17.469-10.09v-17.684l-20.035 11.57.074.039-12.805 7.34-12.766-7.379-12.258-7.086-6.402-3.687-6.363-3.656 70.555-40.754v-9.004l-7.773-4.484-70.957 40.973V42.723l33.238-19.168-15.336-8.859L46.094 32.27h.035l-2.566 1.484v70.086l63.758 36.813 10.016 5.789-3.977 2.313h-.035l-33.598 19.383-3.184 1.844-3.184-1.844-67.262-38.801-3.184-1.848V42.504l3.184-1.844 9.582-5.531v85.02l60.863 35.152 15.297-8.859-58.367-33.707-2.676-1.555V26.41l8.934-5.168h.035L73.359 1.855 76.543.012zm0 0"
      fill-rule="evenodd" />
  </g>
  <g clip-path="url(#B)">
    <g clip-path="url(#C)">
      <g clip-path="url(#D)">
        <path fill="#ffcc53"
          d="M58.691 91.418l.117-38.785-.016-.031.031-4.602 12.695 7.395.02.031 33.117 19.246 12.301-7.047-45.379-26.391-12.699-7.395.063-20.043v-3.711L79.492-1.687 92.258 5.75l44.996 26.156.035-14.195-35.93-20.883-9.566-5.566 40.887-23.426 3.199 1.879 14.809 8.602-.531.309-.023 8.18-.02 5.93-17.437-10.141-15.344 8.793 20 11.629-.004-.078 12.734 7.457-.055 14.746-.059 14.16-.016 7.387-.008 7.34L79.488 13.07l-7.812 4.477-.027 8.973 70.828 41.195-37.844 21.684L71.48 70.09l-.066 17.707 30.387 17.684-.016-.031 2.563 1.492 60.813-34.844.246-73.621.039-11.566 3.988 2.301.016.031 33.523 19.512 3.18 1.848-.016 3.676-.23 77.656-.02 3.676-73.738 42.25-3.184-1.844-9.562-5.566 73.77-42.266.242-70.285-15.293-8.867-.227 67.398-.02 3.098-73.551 42.141-8.93-5.18-.016-.031-33.52-19.516-3.184-1.844zm0 0"
          fill-rule="evenodd" />
      </g>
    </g>
  </g>
</svg>