<?xml version="1.0" encoding="utf-8"?>
<!-- Generator: Adobe Illustrator 22.1.0, SVG Export Plug-In . SVG Version: 6.00 Build 0)  -->
<svg version="1.1" xmlns="http://www.w3.org/2000/svg" xmlns:xlink="http://www.w3.org/1999/xlink" x="0px" y="0px"
	viewBox="0 0 805.2 258" style="enable-background:new 0 0 805.2 258;" xml:space="preserve">
	<style type="text/css">
		.st0 {
			fill: #215FCC;
		}
	</style>
	<path class="st0" d="M112,0c8.1,1.7,16.4,2.8,24.3,5.1c44.4,13.3,80.5,38.5,106.8,76.8c10.2,14.8,16.5,31.2,14.8,49.7
	c-1.4,15.5-7.7,29.3-16.7,41.6c-29,39.8-67.3,66.3-115.5,76.4C70,261.2,29.9,234.1,10.4,184.3c-5-12.8-6.4-27.1-9.4-40.7
	c-0.3-1.2-0.6-2.5-1-3.7c0-9,0-18,0-27c0.3-1.8,0.8-3.5,1-5.3c2.3-20.9,7.3-40.9,18.5-59c14.4-23.2,33.4-40.4,61-46.3
	C84.6,1.6,88.8,0.8,93,0C99.3,0,105.7,0,112,0z M73.1,82c-1.6,10.6-3.1,20.8-4.5,30.9c-0.4,3.1-1.5,5-4.5,6.8
	c-2.6,1.5-5.2,5.1-5.5,8c-0.3,2.4,2.1,6.4,4.4,7.5c3.5,1.7,4,3.8,3.8,7c-0.2,2.3-0.1,4.7,0,7c0.3,12.6,1.8,24.9,7.5,36.4
	c4.3,8.7,11.1,15,20.9,16c8.2,0.8,16.7,1,24.8-0.3c22.1-3.6,39.6-15.8,54.7-31.7c2.9-3,5.7-6.2,7.8-9.7c0.9-1.5,0.5-4.7-0.7-6
	c-2-2.4-3.5,0.2-5.2,1.5c-8.5,7.2-16.7,14.9-25.8,21.2c-11.9,8.3-25.3,13.2-40.2,13c-9-0.2-16.2-3.6-20.8-11.6
	c-7.5-13.2-7.8-27.9-8.4-42.6c1.3-0.2,2.1-0.4,2.9-0.5c25.7-2.6,51.4-5.2,77-7.9c8.9-1,17.8-2.3,26.7-3.7c3.4-0.5,5.8-3,4.7-6.3
	c-0.6-1.7-3.9-3.6-5.9-3.5c-23.3,1.1-46.5,2.8-69.8,3.8c-11.6,0.5-23.2,0.1-35.9,0.1c1.8-12.5,3.5-25,5.5-37.4
	c0.2-1.3,2.6-2.7,4.2-3.1c30.1-7.3,60.6-10.5,91.6-9.4c2.8,0.1,5.7-0.1,8.4-0.7c3.5-0.8,4.3-4,1.6-6.4c-1.4-1.2-3.4-2.2-5.3-2.3
	c-11.6-0.8-23.3-2.1-34.9-1.8c-18.6,0.6-37.2,2.3-55.8,3.5C94.6,59.9,91.6,60,91,59c-3-5.4-7.6-4-9.9-1c-4.1,5.4-9.6,5.7-15.1,7.1
	c-2,0.5-4,1.8-5.5,3.2c-2.9,2.8-3.6,6.3-1.6,10c2,3.5,5,5.3,9.1,4.5C69.9,82.7,71.3,82.4,73.1,82z" />
	<path class="st0" d="M523,258c-1-5.4-2.8-10.7-2.8-16.1c-0.1-30.8,0.2-61.6,0.3-92.4c0-10.3,0-20.6,0-30.8c-0.6-0.4-1.1-0.8-1.7-1.3
	c-7,2.7-14.2,5.1-21.1,8.2c-3.9,1.8-7,1.5-10-1.4c-5.2-5.1-4.8-9.5,1.8-12.3c8.2-3.5,16.7-6.3,25.1-9.6c1.1-0.4,2.3-1.4,2.8-2.4
	c2.5-5.2,7.3-6.2,11-1.6c2.3,2.9,5.1,3.8,8.4,4.4c33.8,6,58.9,35,60.2,69.5c0.6,17.8-9.8,29-27.5,28.6c-9.6-0.2-19.2-1.6-28.8-2.4
	c-2.1-0.2-4.2-0.4-7.6-0.8c0,8.9,0.2,17.4,0,25.8c-0.2,9.1-0.5,18.3-1.3,27.4c-0.2,2.5-2.4,4.7-3.7,7.1C526.3,258,524.7,258,523,258
	z M534,185.5c11.5,0.7,22.8,1.9,34,1.8c11.4-0.1,17.8-7.8,16.7-19.1c-1.3-14.6-7.3-27.2-18.2-37.2c-9-8.3-20.3-11.5-32.6-13.2
	C534,140.4,534,162.5,534,185.5z" />
	<path class="st0" d="M688.1,157.2c-8.7,10.9-17.6,22.4-27.1,33.5c-5.6,6.5-11.9,12.5-18.3,18.3c-5.9,5.3-11.6,4.4-16.9-1.6
	c-6.4-7.2-7.4-16-6.5-24.9c2.5-23.2,5.2-46.3,13.3-68.4c1.3-3.6,2.9-7.1,4.6-10.5c7.9-15.9,17.9-20.6,35.1-16.1
	c5.9,1.6,12,3.5,17.1,6.6c6.1,3.7,11.6,5.3,18.4,0.4c1.2,7.3,4,13.1,1.3,20.6c-3.1,8.8-3.9,18.5-4.8,27.9
	c-1.2,12.4-1.5,24.9-2.1,37.4c-0.1,3,0.3,6,1,8.9c0.3,1.4,1.4,3,2.7,3.7c5.4,3.3,6.7,11.3,2.5,15.8c-4.2,4.4-10.2,4-14.1-1.5
	c-4.7-6.5-5.6-14.2-5.9-21.9C687.8,175.9,688.1,166.3,688.1,157.2z M630.8,184.1c-0.1,0.8-0.4,1.7-0.2,2.5c0.9,3.1,2,6.1,3,9.1
	c2.5-1.4,5.4-2.4,7.4-4.3c17.4-16.2,31.8-34.9,44.3-55c3.5-5.6,6.1-11.8,8.3-18c0.7-2.2-0.3-6.7-2-7.6c-5.6-3.2-11.6-5.8-17.8-7.5
	c-15.7-4.3-22.5-1-28,14.5C638.1,139.2,633.7,161.5,630.8,184.1z" />
	<path class="st0" d="M370.6,119.8c-0.9,20-1.8,39.9-2.5,59.9c-0.1,3.7,0.6,7.6,1.4,11.3c0.8,3.5,3.1,4.9,6.7,2.9
	c10-5.5,20.1-11,30.2-16.5c0.9-0.5,1.6-1.4,2.5-1.5c2.2-0.4,4.5-0.4,6.7-0.5c-0.2,2.4,0.5,5.7-0.8,7.1c-5,5.5-10,11.4-16.2,15.3
	c-7.9,5-16.7,8.8-25.5,12.2c-7.3,2.8-11.2,1-13.3-6.6c-2.4-8.7-4.7-17.9-4.4-26.9c0.5-20.1,2.5-40.2,3.9-60.3s2.4-40.2-0.3-60.3
	c-0.9-6.9,4.6-9,9.9-7.9c1.3,0.3,2.8,3.6,2.9,5.6c0.4,11.6,0.7,23.3,0.5,34.9c-0.1,10.5-0.9,21-1.4,31.4
	C370.9,119.8,370.7,119.8,370.6,119.8z" />
	<path class="st0" d="M294.9,121.1c-0.8,20-1.6,39.9-2.3,59.9c-0.1,1.5-0.1,3,0.1,4.5c0.8,9.1,3.5,10.9,11.5,6.7
	c9.7-5.1,19.1-10.8,28.8-16c2-1.1,5.6-1.9,7-0.9c2.8,2.2,1.3,5.4-0.7,7.9c-11.5,14.6-27,22.9-44.6,27.6c-4.2,1.1-7.6-0.9-8.8-4.6
	c-2.3-7.2-5.3-14.7-5.4-22.1c-0.1-17.6,0.9-35.2,2.3-52.8c2-25.4,3.8-50.8,1-76.3c-0.5-4.3,1.6-6.4,5.7-7.2c4.6-1,7.1,0.6,7.1,5.4
	c0,15.5,0.1,31,0,46.4c-0.1,7.2-0.7,14.3-1.1,21.4C295.1,121.1,295,121.1,294.9,121.1z" />
	<path class="st0" d="M761.5,95.3c-1.3,28.1-2.6,56.5-4,84.9c0,0.8,0,1.7,0,2.5c0.3,12.1,3.3,14,13.6,8.5c9.1-4.9,17.9-10.3,27-15.1
	c2-1,4.7-0.6,7.1-0.8c-0.2,2.5,0.5,5.6-0.8,7.3c-11.4,15.2-27.1,23.7-45.1,28.3c-4.8,1.3-8-1.8-9.2-5.8c-2.2-7.3-4.8-14.8-4.8-22.2
	c-0.1-16.8,0.8-33.6,2.3-50.3c2.2-25.8,3.9-51.5,1.2-77.3c-0.5-4.6,1.4-6.6,5.8-7.5c5-1,6.9,1.2,6.9,5.7
	C761.5,67.3,761.5,81.1,761.5,95.3z" />
	<path class="st0" d="M430.8,172.8c1.8-17,3.8-34,5.5-51.1c0.5-4.6,0.5-9.3,0.7-14c0.2-5.2,2.4-6.7,9.6-7.4c5-0.5,6,3,5.8,6.2
	c-0.7,11.9-1.8,23.8-2.9,35.7c-1.2,12.9-2.7,25.8-4,38.7c-0.1,0.8,0,1.7,0,2.5c0.5,10.5,3.4,12.2,12.1,6.9
	c9.9-6,19.7-12.4,29.8-18.2c2-1.2,5.6-2.1,7-1.1c3,2.2,1.3,5.4-0.7,7.9c-12,15-27.7,24.7-45.7,30.7c-5.2,1.7-9.7-0.2-11.5-5.9
	c-2.4-7.7-3.4-15.8-4.9-23.7c-0.4-2.3-0.1-4.7-0.1-7C431.3,172.9,431.1,172.9,430.8,172.8z" />
	<path class="st0" d="M471.8,47.3c-1.4,2.6-2.3,5.7-4.3,7.6c-10.2,9.3-20.7,18.3-31.1,27.3c-0.9,0.7-2,1.3-3,1.7
	c-3.4,1.3-6.8,0.5-8.1-2.7c-0.9-2.1-0.8-5.9,0.6-7.6c8.3-10.4,17.1-20.4,25.9-30.4c1.7-2,3.8-3.8,6.1-5
	C464.4,34.8,471.4,39.5,471.8,47.3z" />
</svg>