<svg xmlns="http://www.w3.org/2000/svg" fill="none" viewBox="0 0 249 27"><g fill="#202020"><path d="m73.707 2.771-4.138 17.576L65.076 2.77h-3.885l-4.427 17.545L52.591 2.77h-4.01L54.39 25.06h4.297L63.15 7.831l4.43 17.228h4.298l5.809-22.288h-3.979ZM91.315 21.428v-6.88c0-3.886-2.184-5.952-6.548-5.952-3.85 0-6.708 1.877-7.156 5.447h3.722c.226-1.75 1.475-2.642 3.403-2.642 1.927 0 2.888 1.05 2.888 2.356 0 .734-.288 1.336-1.475 1.53l-3.115.444c-2.73.444-5.999 1.336-5.999 5.095 0 2.8 2.056 4.65 5.233 4.65 2.117 0 4.235-.764 5.649-2.8v.352c0 1.244 1.028 2.04 2.662 2.04h2.375V22.17h-.868c-.448 0-.771-.286-.771-.734v-.009Zm-3.69-3.5c0 2.643-1.574 4.744-4.139 4.744-1.604 0-2.663-.796-2.663-2.229s.9-2.132 2.92-2.483l2.406-.414c.545-.127.997-.224 1.475-.479v.862ZM98.21 2.771h-3.722V25.06h3.722V2.771ZM104.553 2.771h-3.722V25.06h3.722V2.771ZM114.194 8.596c-4.816 0-7.864 3.631-7.864 8.44 0 4.81 3.048 8.436 7.864 8.436 4.236 0 6.739-2.387 7.253-5.446h-3.659c-.514 1.657-1.733 2.545-3.563 2.545-2.693 0-3.947-1.974-4.173-4.616h11.586c.257-6.941-3.208-9.363-7.444-9.363v.004Zm-4.076 6.88c.355-2.26 1.604-4.014 4.076-4.014 2.247 0 3.594 1.21 3.789 4.014h-7.865ZM128.2 20.285V11.85h3.465V9.014H128.2v-5.32h-3.721v4.524c0 .51-.288.796-.771.796h-1.764v2.835h2.535v9.236c0 2.77 1.378 3.979 4.076 3.979h3.5v-2.897h-2.18c-1.254 0-1.67-.541-1.67-1.877l-.005-.005ZM143.892 22.162c-3.881 0-6.353-3.407-6.353-8.247s2.405-8.246 6.353-8.246c3.048 0 4.94 2.004 5.49 4.936h4.045c-.514-4.743-3.851-8.247-9.531-8.247-5.999 0-10.429 4.524-10.429 11.557 0 7.034 4.364 11.557 10.429 11.557 5.069 0 8.857-2.738 9.726-8.343h-4.046c-.482 3.024-2.631 5.029-5.68 5.029l-.004.004ZM162.701 8.596c-5.037 0-7.957 3.631-7.957 8.44 0 4.81 2.92 8.436 7.957 8.436 5.038 0 7.927-3.596 7.927-8.436s-2.889-8.44-7.927-8.44Zm0 13.883c-2.986 0-4.138-2.58-4.138-5.478 0-2.897 1.157-5.411 4.138-5.411 2.982 0 4.139 2.545 4.139 5.411 0 2.866-1.157 5.478-4.139 5.478ZM181.442 8.596c-2.18 0-4.267 1.02-5.361 2.836V9.014h-3.722v16.05h3.722V16.02c0-2.484 1.732-4.33 4.01-4.33 2.056 0 3.402 1.336 3.402 3.758v9.619h3.722V15.005c0-4.075-2.149-6.4-5.777-6.4l.004-.009ZM198.789 8.596c-2.18 0-4.267 1.02-5.361 2.836V9.014h-3.722v16.05h3.722V16.02c0-2.484 1.732-4.33 4.009-4.33 2.056 0 3.403 1.336 3.403 3.758v9.619h3.722V15.005c0-4.075-2.149-6.4-5.778-6.4l.005-.009ZM214.047 8.596c-4.816 0-7.864 3.631-7.864 8.44 0 4.81 3.048 8.436 7.864 8.436 4.236 0 6.739-2.387 7.253-5.446h-3.66c-.514 1.657-1.732 2.545-3.562 2.545-2.694 0-3.948-1.974-4.174-4.616h11.586c.257-6.941-3.207-9.363-7.443-9.363v.004Zm-4.076 6.88c.354-2.26 1.604-4.014 4.076-4.014 2.246 0 3.593 1.21 3.788 4.014h-7.864ZM230.378 11.59c1.798 0 3.114 1.147 3.5 3.152h3.752c-.482-3.886-3.207-6.146-7.221-6.146-4.879 0-7.958 3.631-7.958 8.44 0 4.81 3.079 8.436 7.958 8.436 4.204 0 6.707-2.356 7.221-5.794h-3.721c-.514 1.877-1.702 2.8-3.531 2.8-2.792 0-4.108-2.514-4.108-5.477 0-2.963 1.316-5.411 4.108-5.411ZM246.001 22.162c-1.254 0-1.671-.54-1.671-1.877V11.85h3.465V9.014h-3.465v-5.32h-3.721v4.524c0 .51-.288.796-.771.796h-1.764v2.835h2.535v9.236c0 2.77 1.377 3.979 4.076 3.979h3.495v-2.897h-2.179v-.005ZM31.771 10.293l3.815-3.785c-8.622-8.554-19.335-8.554-27.957 0l3.815 3.785c6.557-6.506 13.774-6.506 20.332 0h-.005Z"></path><path d="m30.5 19.111-8.896-8.827-8.897 8.827-8.897-8.827L0 14.064l12.707 12.613 8.897-8.827 8.896 8.827 12.707-12.612-3.81-3.78L30.5 19.11Z"></path></g></svg>