<svg
  id="linkedInLogotype"
  xmlns="http://www.w3.org/2000/svg"
  viewBox="0 0 51 50"
>
  <path
    fill="#0A66C2"
    d="M.5 3.582C.5 1.604 2.144 0 4.172 0h42.656C48.856 0 50.5 1.604 50.5 3.582v42.836c0 1.979-1.644 3.582-3.672 3.582H4.172C2.144 50 .5 48.397.5 46.418V3.582Zm15.448 38.273V19.277H8.444v22.578h7.504Zm-3.752-25.66c2.617 0 4.246-1.734 4.246-3.9-.05-2.216-1.63-3.902-4.197-3.902S8 10.08 8 12.294c0 2.167 1.628 3.9 4.147 3.9h.049Zm15.34 25.66V29.247c0-.675.048-1.35.246-1.831.543-1.349 1.778-2.745 3.851-2.745 2.716 0 3.802 2.07 3.802 5.106v12.078h7.503V28.91c0-6.934-3.702-10.161-8.64-10.161-3.98 0-5.765 2.188-6.762 3.726v.078h-.05l.05-.078v-3.197H20.03c.099 2.119 0 22.578 0 22.578h7.505Z"
  ></path>
</svg>