<svg id="redditLogotype" xmlns="http://www.w3.org/2000/svg" viewBox="0 0 51 50">
  <path
    d="M19.7722 24.9999C18.3402 24.9999 17.1767 26.1634 17.1767 27.5954C17.1767 29.0274 18.3402 30.2207 19.7722 30.1909C21.2042 30.1909 22.3677 29.0274 22.3677 27.5954C22.3677 26.1634 21.2042 24.9999 19.7722 24.9999Z"
    fill="#FF4500"
  ></path>
  <path
    d="M25.53 36.3961C26.5144 36.3961 29.9154 36.2768 31.7054 34.4868C31.944 34.2183 31.944 33.8007 31.7054 33.5322C31.4369 33.2637 31.0192 33.2637 30.7507 33.5322C29.6469 34.6658 27.2304 35.0536 25.53 35.0536C23.8295 35.0536 21.4428 34.6658 20.3092 33.5322C20.0407 33.2637 19.623 33.2637 19.3545 33.5322C19.086 33.8007 19.086 34.2183 19.3545 34.4868C21.1147 36.247 24.5156 36.3961 25.53 36.3961Z"
    fill="#FF4500"
  ></path>
  <path
    d="M28.6326 27.6252C28.6326 29.0572 29.7961 30.2207 31.228 30.2207C32.66 30.2207 33.8235 29.0274 33.8235 27.6252C33.8235 26.1933 32.66 25.0298 31.228 25.0298C29.7961 25.0298 28.6326 26.1933 28.6326 27.6252Z"
    fill="#FF4500"
  ></path>
  <path
    d="M50.5 25C50.5 38.8071 39.3071 50 25.5 50C11.6929 50 0.5 38.8071 0.5 25C0.5 11.1929 11.6929 0 25.5 0C39.3071 0 50.5 11.1929 50.5 25ZM38.5371 21.3603C37.5526 21.3603 36.6576 21.7482 36.0013 22.3746C33.4953 20.5847 30.0646 19.4212 26.2459 19.272L27.9166 11.4558L33.3462 12.6193C33.4059 13.9916 34.5395 15.0954 35.9417 15.0954C37.3736 15.0954 38.5371 13.9319 38.5371 12.4999C38.5371 11.068 37.3736 9.90448 35.9417 9.90448C34.9273 9.90448 34.0323 10.5011 33.6147 11.3663L27.5586 10.0835C27.3796 10.0536 27.2006 10.0835 27.0813 10.173C26.9321 10.2625 26.8426 10.4116 26.8128 10.5906L24.9631 19.3019C21.0849 19.4212 17.5944 20.5847 15.0586 22.4045C14.4023 21.778 13.5073 21.3902 12.5228 21.3902C10.4942 21.3902 8.88318 23.031 8.88318 25.0298C8.88318 26.5214 9.77817 27.7744 11.0312 28.3412C10.9715 28.6992 10.9417 29.0572 10.9417 29.4451C10.9417 35.0536 17.4751 39.6181 25.53 39.6181C33.5849 39.6181 40.1183 35.0835 40.1183 29.4451C40.1183 29.0871 40.0884 28.6992 40.0288 28.3412C41.2817 27.7744 42.1767 26.4916 42.1767 24.9999C42.1767 22.9713 40.5359 21.3603 38.5371 21.3603Z"
    fill="#FF4500"
  ></path>
</svg>