<svg
  id="youTubeLogotype"
  xmlns="http://www.w3.org/2000/svg"
  version="1.1"
  x="0px"
  y="0px"
  viewBox="0 0 50 50"
>
  <circle cx="25" cy="25" r="25" fill="red" />
  <path
    fill="#fff"
    d="M25.083 15.246H25.228c1.335.005 8.103.054 9.928.545 1.119.3 2 1.184 2.299 2.307.165.617.28 1.436.36 2.28l.015.168.035.423.012.168c.107 1.486.12 2.876.12 3.18l.001.04v.082c-.002.316-.015 1.801-.133 3.349l-.014.169-.014.169c-.08.93-.201 1.854-.382 2.533a3.262 3.262 0 0 1-2.299 2.306c-1.885.507-9.05.543-10.043.545h-.23c-.502 0-2.58-.01-4.756-.085l-.278-.01-.14-.005-.278-.011-.278-.012c-1.803-.08-3.522-.209-4.313-.422-1.119-.3-2-1.184-2.299-2.306-.18-.679-.302-1.603-.382-2.533l-.014-.17-.014-.168a51.078 51.078 0 0 1-.133-3.31v-.2c.003-.349.016-1.557.104-2.89l.011-.167.006-.084.012-.168.035-.423.016-.169c.08-.843.195-1.662.36-2.28a3.262 3.262 0 0 1 2.298-2.306c.79-.213 2.51-.342 4.313-.421l.278-.012.278-.011.14-.005.278-.01c2.037-.07 3.989-.083 4.641-.086H25.083Zm-2.685 5.218v7.828l6.755-3.914-6.755-3.914Z"
  />
</svg>
